<?xml version="1.0" encoding="UTF-8"?>
<svg version="1.1" viewBox="0 0 1024 1024" width="1280" height="1280" xmlns="http://www.w3.org/2000/svg">
<path transform="translate(0)" d="m0 0h1024v1024h-1024z" fill="#1D1B1C"/>
<path transform="translate(518,136)" d="m0 0 4 5 16 27 17 29 10 17 39 65 17 28 42 70 19 32 17 28 9 15 13 22-1 6-11 20h-2l-11-19-6-10-13-22-17-29-8-13-17-29-17-28-15-25-34-56-13-21-14-23-15-24-8-14-2-1-2 5-26 42-14 23-10 16-12 19-13 21-14 22-17 28-15 24-12 20-16 26-10 17-10 16-14 23-3 5-3-1-10-17 1-6 8-14 51-84 12-20 10-16 17-28 13-21 18-30 34-56 16-27 17-29z" fill="#FCFBFC"/>
<path transform="translate(752,539)" d="m0 0 4 4 12 19 17 28 12 20 15 24 14 24 11 18 57 95 10 16v3h-224l-62-1 3-8 5-7 2-4h2v-2l2-1h231l-10-17-9-15-17-28-12-20-10-17-30-50-19-32-11-19-5-10 3-8h2l2-5 3-1z" fill="#FCFBFC"/>
<path transform="translate(283,540)" d="m0 0 2 2 6 11 3 3v3h2l-1 4-6 11-15 27-8 13-30 52-15 25-17 29-13 22-9 15-5 10h225l1 4 5 10 3 5v2l2 1-165 1h-113l1-4 16-27 8-13 19-32 15-25 14-24 9-15 10-17 21-35 17-29 10-16z" fill="#FBFAFB"/>
<path transform="translate(513,289)" d="m0 0 3 3 8 13 18 30 17 28 13 22 13 21 12 20 15 24 19 32 13 21 13 22 10 16-1 7-9 16h-2l-12-20-14-24-19-32-17-28-18-30-34-56-16-26-11-19-7 10-17 29-12 20-14 23-4-4-8-14 2-6 17-28 8-14 24-40z" fill="#FCFBFC"/>
<path transform="translate(302,598)" d="m0 0 4 8 2 5 2 1v3l4 2-8 16-11 19-13 22-28 48 172 1 12 19 1 4h-224l2-6 15-25 32-54 14-24 9-15 14-23z" fill="#FBFAFB"/>
<path transform="translate(730,592)" d="m0 0 3 1 9 14 17 28 13 22 42 70 10 17-2 2h-195l2-6 10-16 1-1h145l-6-11-12-20-17-29-12-20-11-19-7-12 1-6 3-5 2-1z" fill="#FCFBFC"/>
<path transform="translate(525,237)" d="m0 0h2l5 9 14 22 12 20 17 28 15 25 16 26 13 21 14 23 13 21 16 26 17 28 13 21 9 15 9 14-2 6-9 15h-2l-17-29-24-39-17-28-13-21-17-28-12-19-12-20-14-23-9-15-17-28-30-50-2-5 6-6h2v-3h2z" fill="#FBFAFB"/>
<path transform="translate(333,633)" d="m0 0 2 2 1 4 2 1 1 3 6 4-7 15h97l13 20 15 24 13 21 31 51 8 13 2 13 2 6 2 2-7 13-4-4-11-18-15-24-13-21-11-17-12-20-9-14-14-22v-2h-122l5-10 10-16 14-23z" fill="#FBFAFB"/>
<path transform="translate(592,723)" d="m0 0h24l-1 5-10 16-17 29-6 10-17 29-13 22-17 29-15 25-5 8-3-4-8-14-17-28-13-21-11-18-15-24-5-9v-3l16-4 4 2 15 23 24 38 11 17 2 1 17-28 13-22 17-29 17-28z" fill="#FCFBFC"/>
<path transform="translate(447,608)" d="m0 0 3 1 14 23 12 19 13 21 28 46 2 1 8-14 15-25 17-28 16-27 10-16 2-1 9 16 2 3-1 5-24 40-17 28-15 25-10 16-9 15-5 5-12-20-17-28-8-13-31-51-12-19 1-6z" fill="#FCFBFC"/>
<path transform="translate(535,402)" d="m0 0 4 4 11 18 13 21 14 23 19 32 8 13 27 45 17 28 13 22 3 5v5l-9 15-3 3-21-35-19-32-34-56-35-59-15-25-5-9 2-4 7-9 1-3h2z" fill="#FBFAFB"/>
<path transform="translate(472,439)" d="m0 0 2 2v4h2l3 8h2l1 9-14 25-8 13-10 17-32 54-16 28-9 15-11 18h-3l-11-18 2-6 15-25 39-66 24-40 15-24z" fill="#FBFAFB"/>
<path transform="translate(474,568)" d="m0 0 4 4 14 22 17 28 8 13 12-20 14-23 14-22 2 1 4 5 6 4 1 2h2l-1 6-14 24-16 27-10 17-13 22-4-5-13-22-13-21-9-15-17-28-2-3 1-5 9-6z" fill="#FCFBFC"/>
<path transform="translate(703,632)" d="m0 0 4 4 11 18 15 24 2 5h-147l5-10 7-11h100l-7-13v-3l3-3 4-7h2z" fill="#FCFBFC"/>
<path transform="translate(403,403)" d="m0 0 3 4 2 4 5 7 1 3-15 27-8 13-34 58-13 22-8 13h-2l-10-17-1-2 9-16 17-28 24-40 16-26 12-19z" fill="#FBFAFB"/>
<path transform="translate(514,454)" d="m0 0h2l12 20 13 21 12 21 11 18v2h-24l-9-15-13-23-1-2h-2l-24 40h-25l6-11 13-23 8-13 9-15z" fill="#FCFBFC"/>
<path transform="translate(428,434)" d="m0 0 2 2 4 8 1 3 3 3 2 4-13 23-9 15-16 28-14 24-11 19h-2l-7-13-4-8 10-18 12-20 10-17 9-15 10-17z" fill="#FBFAFB"/>
<path transform="translate(493,404)" d="m0 0 3 2v2l6 2 2 6-1 1 2 1-1 6-6 12h-2l-2 6-3 6h-2l-2 6-4 8-3-4-1-4-3-6v-3h-2l-1-9 11-18h2v-5l3-5h2z" fill="#2C2A2D"/>
<path transform="translate(441)" d="m0 0h71l3 3 3 1v4l-5 1h-24l-14 1-2 1-2 5-6 1-2-2-2-5-20-1-2-1z" fill="#2C2A2D"/>
<path transform="translate(862,765)" d="m0 0 1 2-233 1v2l-2 1-5 9-4 8 61 1v1h-71l-7-1 2-5 10-16 2-2z" fill="#807E7F"/>
<path transform="translate(177,766)" d="m0 0h231l6 2 11 18v3h-12l-3-3-7-12-2-6-224-1z" fill="#807E7F"/>
<path transform="translate(500,571)" d="m0 0h33l-2 5-9 16-5 8-3-4-10-17z" fill="#FCFBFC"/>
<path transform="translate(446,332)" d="m0 0 3 3 4 5 6 3-8 15-8 13-4-5-6-11 1-5z" fill="#FCFBFC"/>
<path transform="translate(461,308)" d="m0 0 5 4v6l5 1v4l-10 19-5 2-5-5-4-6 1-6 9-14z" fill="#828081"/>
<path transform="translate(310,584)" d="m0 0 6 5v3l4 2v3l-1 1h3l1 4-8 15-5-2v-3l-3-1-2-7-3-3 1-6 6-10z" fill="#817F80"/>
<path transform="translate(343,616)" d="m0 0 12 12-1 7-6 9-3 4-7-5v-3l-3-1-2-7 5-8 3-5z" fill="#2C2A2D"/>
<path transform="translate(412,388)" d="m0 0 1 2 3 1 3 5v2h2l3 4-2 6-6 10-2 3-9-12-1-9z" fill="#817F80"/>
<path transform="translate(479,426)" d="m0 0h2l3 5 2 3 2 5 3 4v5h-2l-2 6-4 8-3-4-1-4-3-6v-3h-2l-1-9z" fill="#838182"/>
<path transform="translate(436,420)" d="m0 0 2 4 5 6 4 7 1 4-7 12h-3l-1-5-4-2-1-4-3-4-1-5 6-10z" fill="#828081"/>
<path transform="translate(723,578)" d="m0 0 4 5 5 7v2l-2 1-4 8-2 1-4 9-4-5-6-13 5-5 6-5z" fill="#817F80"/>
<path transform="translate(527,389)" d="m0 0 2 1v2h2l5 8-1 4h-2l-1 4-6 8-2 3-3-1-5-9 2-6z" fill="#7F7D7E"/>
<path transform="translate(290,529)" d="m0 0 5 5 1 7 3 1v2h2v3h2l-1 5-5 9-1-2h-2v-3l-3-1-6-10-1-7 5-8z" fill="#817F80"/>
<path transform="translate(471,292)" d="m0 0h1v5l6 1 2 10-5 10-3 3-2-2-4-1v-6l-6-3 2-5h2l2-5z" fill="#2C2A2D"/>
<path transform="translate(517,224)" d="m0 0 5 5 4 6v5l-3 3h-2v3l-4 3-2 4h-3l-6-10 1-4 4-5 3-5h2z" fill="#807E7F"/>
<path transform="translate(744,528)" d="m0 0 4 1 5 8-2 6-6 8-2 2-3 7-3-4-4-8 2-5h2l1-5 4-5z" fill="#807E7F"/>
<path transform="translate(696,621)" d="m0 0 5 5 3 4-2 6h-2l-1 4-4 6h-2l-1 3-6-11v-3h2l1-4 6-8z" fill="#7F7D7E"/>
<path transform="translate(562,562)" d="m0 0 4 1v2l5 1 3 3 3 1v2h2l-2 6-4 7-1-3-5-2-8-7-2-4 4-6z" fill="#807E7F"/>
<path transform="translate(441,604)" d="m0 0 3 1 3-1v2l3 1-1 2-2-1-2 6-7 12-2 3-8-13v-4l4-4 9-1z" fill="#2D2B2E"/>
<path transform="translate(545)" d="m0 0h23l6 5v3l-5 1h-24l-2-1z" fill="#2C2A2D"/>
<path transform="translate(461,308)" d="m0 0 5 4v6l5 1v4l-5 10-4-2v-2l-3-1-1-3h-3l-2-3 1-5z" fill="#585657"/>
<path transform="translate(667,576)" d="m0 0 13 1 5 1-1 5-3 4-1 4h-2l-2 6-3-3-9-15v-2z" fill="#2C2A2D"/>
<path transform="translate(465,562)" d="m0 0h7l3 4-2 5h-2l-2 4-4 2-6 6-5-9v-3h2l2-4h3v-2l3-1z" fill="#807E7F"/>
<path transform="translate(486,416)" d="m0 0 3 4-1 4 3 1-1 2 4-1-1 3 4 4-1 5-4 8-2-3-5-7-1-4-3-3-1-5 4-6h2z" fill="#565455"/>
<path transform="translate(590,604)" d="m0 0 4 1 6 4-3 1 8 6-3 8h-2l-1 5-4-5-9-16 3-1z" fill="#2D2B2E"/>
<path transform="translate(485,173)" d="m0 0 4 4v2h2l1-3 2 2-12 20h-4l-1-5 2-2v-10-3l4-3h2z" fill="#2C2A2C"/>
<path transform="translate(314,577)" d="m0 0h3l3 3 1 4 7 7-1 4-3 6-2-1v-2h-3l1-3-4-3-3-5-3-4 2-4h2z" fill="#2C2A2D"/>
<path transform="translate(616,766)" d="m0 0h18v1l-14 1-1 4-7 14-3 3h-7l2-5 10-16z" fill="#575556"/>
<path transform="translate(717,571)" d="m0 0 4 1 3 6-2 5-5 4-4 6h-2l-1 3-3-7v-4l5-4 3-5z" fill="#2C2A2D"/>
<path transform="translate(310,584)" d="m0 0 6 5v3l4 2v3l-1 1h3l1 4-3 6h-2l-2-3v-3l-4-2-3-6-2-6z" fill="#575556"/>
<path transform="translate(336,627)" d="m0 0h2v2h2l3 4v3h2v2h2l2 4-3 6-7-4-1-4-3-1-2-7z" fill="#817F80"/>
<path transform="translate(416,381)" d="m0 0 3 1v2h2l3 6v2h4l1 3-4 8h-3l-1-5h-2l-4-7-2-1v-5z" fill="#2C2A2D"/>
<path transform="translate(477,201)" d="m0 0 2 2-13 22-3-3v-15l2 2 5-3h2l1-2z" fill="#2C2A2D"/>
<path transform="translate(454,764)" d="m0 0 5 3 3 5-8 1-9 2h-2l-1 3-3-6 1-3 7-3z" fill="#7F7D7E"/>
<path transform="translate(520,793)" d="m0 0 3 1v2h3v2h2l-1 5-5 9-4-1-1-6-2-7 1-4 1 2z" fill="#807E7F"/>
<path transform="translate(723,578)" d="m0 0 4 5 1 2-3 3-3 4h-2l-2 4-2 6h-2l-4-10 4-2 5-6 2-1z" fill="#575556"/>
<path transform="translate(412,388)" d="m0 0 1 2 3 1 3 5v2h2l3 4-2 6-1 2-2-1-1-3h-3l-3-6v-2h-2l-1-6z" fill="#575556"/>
<path transform="translate(439,254)" d="m0 0 6 2v3l-8 14-2-4h-2l-3-11 8-2z" fill="#2D2B2E"/>
<path transform="translate(293,523)" d="m0 0 3 3 5 8v2h2l3 6-2 7-1-2h-2v-3h-2l-3-3-3-8-2-2 1-7z" fill="#2C2A2D"/>
<path transform="translate(744,528)" d="m0 0 4 1 2 4-5 6-3 6h-2l-2 6-3 1-2-6 2-3h2l1-5 4-5z" fill="#575556"/>
<path transform="translate(438,416)" d="m0 0 6 5v3h2l2 5 3 2-1 7h-3l-4-5-3-5-3-4-1-5z" fill="#2B292C"/>
<path transform="translate(528,779)" d="m0 0h1v5h2v6h2l-1 5-4 5v-2h-2v-2h-3l-3-4 5-9h2z" fill="#2C2A2D"/>
<path transform="translate(436,420)" d="m0 0 2 4 5 6 4 7 1 4-3 4-3-2-1-4-3-3-2-4v-3h-2v-2l-2-1z" fill="#575556"/>
<path transform="translate(517,224)" d="m0 0 4 3v5l-9 11-3 3-3-3 1-4 4-5 3-5h2z" fill="#575556"/>
<path transform="translate(290,529)" d="m0 0 5 5 1 7 3 1v2h2v3h2l-1 5-3-1-2-5h-4l-3-7-3-3 1-5z" fill="#575556"/>
<path transform="translate(743,522)" d="m0 0 4 4-1 3-2 1-4 7-3 6h-2l-1 4h-2l-1-5 8-14h2l1-4z" fill="#2C2A2D"/>
<path transform="translate(693,616)" d="m0 0 4 3-2 6-6 7-1 3h-2l-1 2-2-4v-4h2l-1-4 3-1 5-5z" fill="#2C2A2D"/>
<path transform="translate(565,556)" d="m0 0 5 1 4 6 6 5 1 3-2 2-2-1v-2l-5-1-2-3-4-1v-2h-5l2-5z" fill="#2C2A2D"/>
<path transform="translate(465,557)" d="m0 0 5 1 2 4-7 2-4 1v2l-4 2-1 2h-2l-1 2-2-5h2l6-9z" fill="#2C2A2D"/>
<path transform="translate(562,562)" d="m0 0 4 1v2l5 1 3 3 3 1v2h2l-2 6-10-6-5-5-2-3z" fill="#575556"/>
<path transform="translate(341,621)" d="m0 0 3 6 5 5 3 2-1 5-2 2h-2v-3h-2v-2h-2l-3-5v-2h-2l-1-3z" fill="#565455"/>
<path transform="translate(562,190)" d="m0 0 3 1 1 6-2 3h3l-1 8-2-1-2 3-6-10 1-6 1 2 5-1 1-3-4-1z" fill="#2F2D2F"/>
<path transform="translate(527,389)" d="m0 0 2 1v2h2l-2 5-6 8-5 6-2-4 9-15z" fill="#575556"/>
<path transform="translate(696,621)" d="m0 0 4 3v2h-2l-1 6-5 5-3 5-3-4v-3h2l1-4 6-8z" fill="#575556"/>
<path transform="translate(443,609)" d="m0 0 4 1-9 16-2 3-4-7v-2l2-1 1-3 4-2 2-2 1-2z" fill="#626061"/>
<path transform="translate(528)" d="m0 0h7l2 8-1 5-4 1-1-3-4-3z" fill="#2C2A2D"/>
<path transform="translate(447,760)" d="m0 0h7v2h2l1 3-10 2-6 1-1 2-2 1-1-3 1-3 4-4z" fill="#2C2A2D"/>
<path transform="translate(465,562)" d="m0 0h7l1 3-5 1-1 3-6 3h-2l-2 4h-2l-1-5h2l2-4h3v-2l3-1z" fill="#575556"/>
<path transform="translate(425,283)" d="m0 0 2 3-2 7-5 8h-4v-9h2l1-2 2-1 2-3z" fill="#2B292B"/>
<path transform="translate(352,583)" d="m0 0h11l-3 9-2 3h-2l-4-8z" fill="#575556"/>
<path transform="translate(674,584)" d="m0 0 7 1-1 6h-2l-2 6-3-3-4-7 1-2z" fill="#817F80"/>
<path transform="translate(410,767)" d="m0 0 4 1 11 18-1 3-2-4-4-1-2-5-2-2-4-7z" fill="#575556"/>
<path transform="translate(352,577)" d="m0 0 9 1 4 1-1 6-1-2h-11l-1 3-2-4v-3z" fill="#2C2A2D"/>
<path transform="translate(568,192)" d="m0 0 7 1 1 5-2 1v6l-3 2-4-2 1-7 2-1 1-3h-3z" fill="#2B292C"/>
<path transform="translate(576,225)" d="m0 0h3l5 7-1 6-3-2-2 1-4-6z" fill="#2E2C2E"/>
<path transform="translate(454,764)" d="m0 0 5 3v1l-16 4h-4l1-3 7-3z" fill="#575556"/>
<path transform="translate(498,157)" d="m0 0h2l1 2h2l-1 6-4 6-4-3 1-5h2l-1-3h2z" fill="#2D2B2E"/>
<path transform="translate(589,612)" d="m0 0h2l5 5 3 2 2 5-2 5-4-5z" fill="#595758"/>
<path transform="translate(520,793)" d="m0 0 3 1v2h3v2h2l-1 5-2 2-5-5-2-4z" fill="#575556"/>
<path transform="translate(672,581)" d="m0 0h11l-1 5-8-1-6 1-1-3z" fill="#575556"/>
<path transform="translate(562,190)" d="m0 0 3 1 1 6-4 4-6-1 1-6 1 2 5-1 1-3-4-1z" fill="#29272A"/>
<path transform="translate(488)" d="m0 0h16l-3 4h-10z" fill="#1D1B1C"/>
<path transform="translate(597,251)" d="m0 0h5l-2 6h-5l-2 2-2-7z" fill="#2B292C"/>
<path transform="translate(451,238)" d="m0 0 4 2-1 4-4 7-3-3-2-1 1-2h3l1-3h3v-2h-2z" fill="#2D2B2D"/>
<path transform="translate(358,392)" d="m0 0v3l2 1-1 5-4 4-1-4v-8h3z" fill="#292729"/>
<path transform="translate(355,587)" d="m0 0h6l-2 6-1 2h-2l-2-4z" fill="#878586"/>
<path transform="translate(671,589)" d="m0 0h8l-2 6-2 2z" fill="#FCFBFC"/>
<path transform="translate(434,264)" d="m0 0h4l1 5-3 4-1-4h-2l-1-3z" fill="#2A282A"/>
<path transform="translate(530,46)" d="m0 0 5 1 1 4h-8l1-4z" fill="#2C2A2D"/>
<path transform="translate(477,201)" d="m0 0 2 2-4 6-5-2 2-1 1-2z" fill="#29272A"/>
<path transform="translate(499,305)" d="m0 0 1 2 2 1-3 5h-2l-1-4z" fill="#2A282A"/>
</svg>
