<?xml version="1.0" encoding="UTF-8"?>
<svg version="1.1" xmlns="http://www.w3.org/2000/svg" width="192" height="192">
<path d="M0 0 C63.36 0 126.72 0 192 0 C192 63.36 192 126.72 192 192 C128.64 192 65.28 192 0 192 C0 128.64 0 65.28 0 0 Z " fill="#1E1C1D" transform="translate(0,0)"/>
<path d="M0 0 C3.72389741 1.24129914 3.9530792 2.19379827 5.78515625 5.56640625 C6.31044922 6.51845947 6.83574219 7.4705127 7.37695312 8.45141602 C7.93318359 9.47807373 8.48941406 10.50473145 9.0625 11.5625 C12.89528276 18.49585938 16.73874006 25.38244749 21 32.0625 C25.11599504 38.57187632 29.19051596 45.10420053 33.1875 51.6875 C33.77724609 52.63310791 34.36699219 53.57871582 34.97460938 54.55297852 C35.51279297 55.44686279 36.05097656 56.34074707 36.60546875 57.26171875 C37.33479614 58.45220825 37.33479614 58.45220825 38.07885742 59.66674805 C39.20585459 62.52142919 38.85497883 64.0996265 38 67 C34.10249125 65.70083042 33.75685537 64.31838941 31.77734375 60.77734375 C31.16125244 59.68897217 30.54516113 58.60060059 29.91040039 57.47924805 C29.58830597 56.90089203 29.26621155 56.32253601 28.93435669 55.72665405 C27.26414376 52.72896315 25.56418786 49.74820623 23.8671875 46.765625 C23.36557854 45.88145149 23.36557854 45.88145149 22.85383606 44.97941589 C19.13744813 38.44609731 15.15060964 32.10214326 11.10986328 25.76708984 C9.94193725 23.90755429 8.80915826 22.02998257 7.68359375 20.14453125 C7.31484131 19.53005127 6.94608887 18.91557129 6.56616211 18.2824707 C5.5706886 16.61818124 4.58195811 14.94986369 3.59375 13.28125 C3.0678125 12.5284375 2.541875 11.775625 2 11 C1.34 11 0.68 11 0 11 C-1.36277086 12.78965547 -1.36277086 12.78965547 -2.625 15 C-3.29402344 16.11375 -3.29402344 16.11375 -3.9765625 17.25 C-4.31429687 17.8275 -4.65203125 18.405 -5 19 C-4.01 18.67 -3.02 18.34 -2 18 C-1.34 18.99 -0.68 19.98 0 21 C0.99 20.34 1.98 19.68 3 19 C7.8201036 25.67786122 12.18991181 32.49843915 16.3125 39.625 C20.31392857 46.46968616 24.35057907 53.28241509 28.5625 60 C28.95542236 60.62729004 29.34834473 61.25458008 29.75317383 61.90087891 C31.5399346 64.73660117 33.36332698 67.51620903 35.29296875 70.2578125 C37 73 37 73 36.75 75.875 C36.37875 76.926875 36.37875 76.926875 36 78 C35.34 78 34.68 78 34 78 C32.57958984 76.07226562 32.57958984 76.07226562 30.9609375 73.40625 C30.38085938 72.45878906 29.80078125 71.51132813 29.203125 70.53515625 C28.59984375 69.53355469 27.9965625 68.53195313 27.375 67.5 C26.76398438 66.49839844 26.15296875 65.49679688 25.5234375 64.46484375 C24.00912123 61.98041863 22.50168315 59.49207443 21 57 C20.67 57.99 20.34 58.98 20 60 C21.81696937 63.03076448 23.77338261 65.86875143 25.83984375 68.73046875 C29.04504593 73.39348874 29.04504593 73.39348874 28.78125 76.9453125 C28.5234375 77.62335938 28.265625 78.30140625 28 79 C23.93355013 77.64451671 23.1407105 75.09530487 21.25 71.5 C17.01975194 63.70729255 12.51605541 56.09151588 7.9375 48.5 C7.2578418 47.37142578 6.57818359 46.24285156 5.87792969 45.08007812 C4.25378486 42.3856061 2.6278868 39.6922124 1 37 C-1.61437086 39.51222206 -3.35302032 42.04850143 -5.1875 45.1875 C-5.98220703 46.53908203 -5.98220703 46.53908203 -6.79296875 47.91796875 C-7.19128906 48.60503906 -7.58960937 49.29210937 -8 50 C-9.485 49.505 -9.485 49.505 -11 49 C-10.67 46.69 -10.34 44.38 -10 42 C-11.98 42.495 -11.98 42.495 -14 43 C-14.66 42.01 -15.32 41.02 -16 40 C-17.98264795 40.65589738 -17.98264795 40.65589738 -20 42 C-20.70029871 43.65281697 -21.36277118 45.32185768 -22 47 C-23.69915706 50.17192263 -25.57427142 53.23465045 -27.4375 56.3125 C-27.92798828 57.14845703 -28.41847656 57.98441406 -28.92382812 58.84570312 C-29.40142578 59.63525391 -29.87902344 60.42480469 -30.37109375 61.23828125 C-30.80349365 61.96055908 -31.23589355 62.68283691 -31.68139648 63.42700195 C-32.33410522 64.20563599 -32.33410522 64.20563599 -33 65 C-33.99 65 -34.98 65 -36 65 C-36.74609375 63.4140625 -36.74609375 63.4140625 -37 61 C-35.78752894 58.63707686 -34.53779193 56.56703067 -33.0625 54.375 C-32.13385708 52.94241601 -31.20689495 51.50874166 -30.28125 50.07421875 C-29.50201172 48.87611572 -29.50201172 48.87611572 -28.70703125 47.65380859 C-25.41988289 42.54349643 -22.2461537 37.36267877 -19.0625 32.1875 C-18.37937744 31.07890625 -17.69625488 29.9703125 -16.99243164 28.828125 C-11.15228261 19.31815729 -5.51651842 9.7006574 0 0 Z " fill="#252324" transform="translate(96,26)"/>
<path d="M0 0 C3.72389741 1.24129914 3.9530792 2.19379827 5.78515625 5.56640625 C6.31044922 6.51845947 6.83574219 7.4705127 7.37695312 8.45141602 C7.93318359 9.47807373 8.48941406 10.50473145 9.0625 11.5625 C12.89528276 18.49585938 16.73874006 25.38244749 21 32.0625 C25.11599504 38.57187632 29.19051596 45.10420053 33.1875 51.6875 C33.77724609 52.63310791 34.36699219 53.57871582 34.97460938 54.55297852 C35.51279297 55.44686279 36.05097656 56.34074707 36.60546875 57.26171875 C37.33479614 58.45220825 37.33479614 58.45220825 38.07885742 59.66674805 C39.20585459 62.52142919 38.85497883 64.0996265 38 67 C34.10249125 65.70083042 33.75685537 64.31838941 31.77734375 60.77734375 C31.16125244 59.68897217 30.54516113 58.60060059 29.91040039 57.47924805 C29.58830597 56.90089203 29.26621155 56.32253601 28.93435669 55.72665405 C27.26414376 52.72896315 25.56418786 49.74820623 23.8671875 46.765625 C23.36557854 45.88145149 23.36557854 45.88145149 22.85383606 44.97941589 C19.13744813 38.44609731 15.15060964 32.10214326 11.10986328 25.76708984 C9.94193725 23.90755429 8.80915826 22.02998257 7.68359375 20.14453125 C7.31484131 19.53005127 6.94608887 18.91557129 6.56616211 18.2824707 C5.5706886 16.61818124 4.58195811 14.94986369 3.59375 13.28125 C3.0678125 12.5284375 2.541875 11.775625 2 11 C1.34 11 0.68 11 0 11 C-1.26067853 12.64451775 -1.26067853 12.64451775 -2.46875 14.8125 C-2.952229 15.63250488 -3.43570801 16.45250977 -3.93383789 17.29736328 C-4.45067139 18.1892334 -4.96750488 19.08110352 -5.5 20 C-6.59122567 21.8522831 -7.68368909 23.70383753 -8.77734375 25.5546875 C-9.32245605 26.47991211 -9.86756836 27.40513672 -10.42919922 28.35839844 C-12.96728872 32.62668075 -15.60853582 36.82749432 -18.26391602 41.0234375 C-20.551499 44.64893644 -22.78146068 48.30047822 -24.9609375 51.9921875 C-25.457146 52.8260498 -25.95335449 53.65991211 -26.46459961 54.51904297 C-27.43021455 56.14552714 -28.38710032 57.7772325 -29.33422852 59.41455078 C-29.76920654 60.14399902 -30.20418457 60.87344727 -30.65234375 61.625 C-31.22456665 62.60339844 -31.22456665 62.60339844 -31.80834961 63.6015625 C-32.39821655 64.29378906 -32.39821655 64.29378906 -33 65 C-33.99 65 -34.98 65 -36 65 C-36.74609375 63.4140625 -36.74609375 63.4140625 -37 61 C-35.78752894 58.63707686 -34.53779193 56.56703067 -33.0625 54.375 C-32.13385708 52.94241601 -31.20689495 51.50874166 -30.28125 50.07421875 C-29.50201172 48.87611572 -29.50201172 48.87611572 -28.70703125 47.65380859 C-25.41988289 42.54349643 -22.2461537 37.36267877 -19.0625 32.1875 C-18.37937744 31.07890625 -17.69625488 29.9703125 -16.99243164 28.828125 C-11.15228261 19.31815729 -5.51651842 9.7006574 0 0 Z " fill="#ECEBEC" transform="translate(96,26)"/>
<path d="M0 0 C4.29741526 1.51291422 5.62741813 4.22691779 7.828125 8.08203125 C8.18082458 8.6920549 8.53352417 9.30207855 8.89691162 9.93058777 C10.02468733 11.88563425 11.13776352 13.84857918 12.25 15.8125 C13.34661035 17.72780595 14.44625765 19.64133686 15.54675293 21.55441284 C16.27481671 22.82076527 17.00114214 24.08811876 17.72570801 25.35647583 C20.86209558 30.82662586 24.18092927 36.17031671 27.55761719 41.49487305 C29 44 29 44 29 46 C11.51 46 -5.98 46 -24 46 C-23.34 44.68 -22.68 43.36 -22 42 C-7.81 42 6.38 42 21 42 C15.07402009 31.33323617 9.2351342 20.83771928 2.68945312 10.58203125 C2.18994141 9.77378906 1.69042969 8.96554688 1.17578125 8.1328125 C0.73145752 7.43043457 0.28713379 6.72805664 -0.1706543 6.00439453 C-1.17720348 3.57172783 -0.88772972 2.43111855 0 0 Z " fill="#F0EFF0" transform="translate(140,102)"/>
<path d="M0 0 C0.99 0.33 1.98 0.66 3 1 C2.40583454 5.22447769 0.94114741 8.22443666 -1.203125 11.89453125 C-1.85410156 13.01537109 -2.50507812 14.13621094 -3.17578125 15.29101562 C-3.86713263 16.46487607 -4.55853924 17.63870399 -5.25 18.8125 C-5.92640314 19.97424751 -6.60219005 21.13635405 -7.27734375 22.29882812 C-10.09154058 27.12277063 -12.92553649 31.92341361 -15.921875 36.63671875 C-18.06866824 39.8232567 -18.06866824 39.8232567 -19 43 C-5.47 43 8.06 43 22 43 C22.66 44.32 23.32 45.64 24 47 C7.17 47 -9.66 47 -27 47 C-25.37965889 42.13897666 -23.93838731 38.94393829 -21.3125 34.6875 C-20.51633796 33.38707925 -19.72081729 32.08626571 -18.92578125 30.78515625 C-18.47412598 30.0492627 -18.0224707 29.31336914 -17.55712891 28.55517578 C-15.72299836 25.54545325 -13.91330819 22.52168055 -12.10546875 19.49609375 C-11.09069458 17.79803589 -11.09069458 17.79803589 -10.05541992 16.06567383 C-8.69174898 13.7832878 -7.32877439 11.50048964 -5.96606445 9.2175293 C-5.33788818 8.16863525 -4.70971191 7.11974121 -4.0625 6.0390625 C-3.49660156 5.09240723 -2.93070313 4.14575195 -2.34765625 3.17041016 C-1 1 -1 1 0 0 Z " fill="#EDECED" transform="translate(53,101)"/>
<path d="M0 0 C0.66 0.33 1.32 0.66 2 1 C1.4849714 6.31378715 -0.36517095 9.91012521 -3.0625 14.375 C-4.361875 16.56125 -5.66125 18.7475 -7 21 C3.23 21.33 13.46 21.66 24 22 C24.66 23.65 25.32 25.3 26 27 C12.47 27 -1.06 27 -15 27 C-14.1077836 23.43113441 -13.1446321 21.2223577 -11.34765625 18.0859375 C-10.81849609 17.16039062 -10.28933594 16.23484375 -9.74414062 15.28125 C-9.18919922 14.3221875 -8.63425781 13.363125 -8.0625 12.375 C-7.23588867 10.92480469 -7.23588867 10.92480469 -6.39257812 9.4453125 C-2.26712592 2.26712592 -2.26712592 2.26712592 0 0 Z " fill="#E3E2E3" transform="translate(56,113)"/>
<path d="M0 0 C4.28535432 1.5121289 5.60417476 4.19611073 7.79296875 8.046875 C8.14329666 8.65452698 8.49362457 9.26217896 8.85456848 9.88824463 C9.97566961 11.83656646 11.0822368 13.79265739 12.1875 15.75 C13.63412765 18.28945521 15.08794206 20.82472575 16.54296875 23.359375 C16.90091522 23.98896118 17.25886169 24.61854736 17.62765503 25.26721191 C19.51433652 28.55463455 21.4729535 31.75714768 23.59228516 34.90039062 C24.0137532 35.52898987 24.43522125 36.15758911 24.86946106 36.80523682 C25.67829359 37.99875473 26.4998915 39.18375424 27.33598328 40.3583374 C29.19674824 43.10376969 30.04118195 44.53585248 29.74291992 47.89746094 C29.49775635 48.59129883 29.25259277 49.28513672 29 50 C24.93355013 48.64451671 24.1407105 46.09530487 22.25 42.5 C18.01975194 34.70729255 13.51605541 27.09151588 8.9375 19.5 C8.2578418 18.37142578 7.57818359 17.24285156 6.87792969 16.08007812 C5.25378486 13.3856061 3.6278868 10.6922124 2 8 C-0.61437086 10.51222206 -2.35302032 13.04850143 -4.1875 16.1875 C-4.71730469 17.08855469 -5.24710937 17.98960938 -5.79296875 18.91796875 C-6.19128906 19.60503906 -6.58960937 20.29210937 -7 21 C-7.99 20.67 -8.98 20.34 -10 20 C-9.46323088 14.9738891 -7.05581499 11.37760591 -4.4375 7.1875 C-4.01275391 6.49462891 -3.58800781 5.80175781 -3.15039062 5.08789062 C-2.10690544 3.38783049 -1.05434704 1.69334524 0 0 Z " fill="#E9E9EA" transform="translate(95,55)"/>
<path d="M0 0 C3.92433577 1.30811192 4.38648875 2.8229007 6.484375 6.34375 C6.81717468 6.89660172 7.14997437 7.44945343 7.49285889 8.01905823 C8.58699311 9.8411449 9.66852752 11.67037463 10.75 13.5 C11.50377577 14.76145365 12.25834147 16.0224356 13.01367188 17.28295898 C14.57139943 19.88513396 16.12427654 22.49011673 17.67382812 25.09716797 C19.90541788 28.84774388 22.16051218 32.58372814 24.421875 36.31640625 C25.116339 37.46476631 25.81067767 38.61320218 26.50488281 39.76171875 C27.81567246 41.93032814 29.1274901 44.09831657 30.44042969 46.265625 C31.02727539 47.24144531 31.61412109 48.21726563 32.21875 49.22265625 C32.73373047 50.07609619 33.24871094 50.92953613 33.77929688 51.80883789 C35 54 35 54 36 57 C35.01 57.66 34.02 58.32 33 59 C32.42894531 58.01644531 31.85789063 57.03289062 31.26953125 56.01953125 C22.19979092 40.46543035 12.74910863 25.13770685 3 10 C2.01 10.66 1.02 11.32 0 12 C-0.433125 11.505 -0.86625 11.01 -1.3125 10.5 C-2.99740483 8.66781808 -2.99740483 8.66781808 -6 9 C-4.02 6.03 -2.04 3.06 0 0 Z " fill="#333132" transform="translate(96,36)"/>
<path d="M0 0 C4.13012266 3.78109821 6.77670304 7.63309803 9.5 12.5 C10.36883571 14.01431862 11.24004757 15.52727571 12.11328125 17.0390625 C12.57557129 17.83989258 13.03786133 18.64072266 13.51416016 19.46582031 C16.16234763 23.98244633 18.92586544 28.42715601 21.6875 32.875 C22.51628662 34.21691406 22.51628662 34.21691406 23.36181641 35.5859375 C25.66046781 39.29579938 27.96530444 42.99119035 30.41796875 46.6015625 C31.06378906 47.55804688 31.70960938 48.51453125 32.375 49.5 C32.91898438 50.2734375 33.46296875 51.046875 34.0234375 51.84375 C35.27378292 54.60451268 34.85331702 56.14891727 34 59 C33.34 59 32.68 59 32 59 C30.46630859 56.84228516 30.46630859 56.84228516 28.6484375 53.7890625 C27.96894043 52.65799072 27.28944336 51.52691895 26.58935547 50.36157227 C25.85090368 49.11624576 25.1127931 47.87071686 24.375 46.625 C22.84648952 44.06216068 21.31402048 41.50169946 19.78125 38.94140625 C19.38952606 38.28544968 18.99780212 37.6294931 18.59420776 36.95365906 C15.88784064 32.43582938 13.10796998 27.97068235 10.28125 23.52734375 C9.53313019 22.34373618 8.78524161 21.15998243 8.03759766 19.97607422 C6.61878513 17.72970727 5.18436362 15.49630146 3.73974609 13.26611328 C2.78189209 11.7441333 2.78189209 11.7441333 1.8046875 10.19140625 C1.23733887 9.30654541 0.66999023 8.42168457 0.08544922 7.51000977 C-1.20490383 4.52617717 -0.94898683 3.05727462 0 0 Z " fill="#E7E6E7" transform="translate(98,45)"/>
<path d="M0 0 C4.02342872 1.49749947 5.3480741 3.71904835 7.453125 7.375 C8.071875 8.44234375 8.690625 9.5096875 9.328125 10.609375 C9.96234375 11.72828125 10.5965625 12.8471875 11.25 14 C11.8996875 15.11890625 12.549375 16.2378125 13.21875 17.390625 C18 25.70758929 18 25.70758929 18 28 C6.12 28 -5.76 28 -18 28 C-17.67 26.68 -17.34 25.36 -17 24 C-7.76 24 1.48 24 11 24 C7.0193978 17.58958969 7.0193978 17.58958969 3.01147461 11.19628906 C2.52171143 10.39416992 2.03194824 9.59205078 1.52734375 8.765625 C1.01937256 7.94868164 0.51140137 7.13173828 -0.01196289 6.29003906 C-1.14368668 3.66696787 -1.01241994 2.61914354 0 0 Z " fill="#EDECED" transform="translate(136,112)"/>
<path d="M0 0 C0.99 0.33 1.98 0.66 3 1 C2.67 2.32 2.34 3.64 2 5 C3.12535156 4.7215625 4.25070313 4.443125 5.41015625 4.15625 C10.54811183 3.28970852 15.14472739 2.81110044 20 5 C27.28824528 12.18188129 34.43195785 23.77449984 36 34 C35.01 34.33 34.02 34.66 33 35 C32.41992188 34.02160156 31.83984375 33.04320312 31.2421875 32.03515625 C27.32170473 25.44891327 23.40676483 18.91206378 18.99609375 12.63671875 C18 11 18 11 18 9 C10.41 9 2.82 9 -5 9 C-3.47426795 5.18566987 -2.47253678 3.03447696 0 0 Z " fill="#EBEAEB" transform="translate(62,119)"/>
<path d="M0 0 C1.15121338 0.12532104 1.15121338 0.12532104 2.32568359 0.25317383 C0.19653954 5.992577 -2.94155686 11.06941137 -6.0690918 16.31152344 C-7.11547499 18.07182858 -8.14582077 19.84092794 -9.17626953 21.6105957 C-9.83433594 22.7159668 -10.49240234 23.82133789 -11.17041016 24.96020508 C-11.77038818 25.97574463 -12.37036621 26.99128418 -12.98852539 28.03759766 C-13.54483643 28.76873779 -14.10114746 29.49987793 -14.67431641 30.25317383 C-15.66431641 30.25317383 -16.65431641 30.25317383 -17.67431641 30.25317383 C-19.11645508 28.54077148 -19.11645508 28.54077148 -20.59228516 26.16723633 C-21.12402344 25.3190332 -21.65576172 24.47083008 -22.20361328 23.59692383 C-23.02442383 22.25114258 -23.02442383 22.25114258 -23.86181641 20.87817383 C-24.420625 19.9887207 -24.97943359 19.09926758 -25.55517578 18.18286133 C-29.67431641 11.54395336 -29.67431641 11.54395336 -29.67431641 9.25317383 C-27.44384766 9.37426758 -27.44384766 9.37426758 -24.67431641 10.25317383 C-22.43603516 12.97583008 -22.43603516 12.97583008 -20.36181641 16.31567383 C-19.66443359 17.42040039 -18.96705078 18.52512695 -18.24853516 19.66333008 C-17.72904297 20.51797852 -17.20955078 21.37262695 -16.67431641 22.25317383 C-14.20064874 20.0013174 -12.71274646 17.75262705 -11.15087891 14.80395508 C-10.45478516 13.53261719 -10.45478516 13.53261719 -9.74462891 12.2355957 C-8.77793355 10.44982198 -7.82224054 8.65805009 -6.87744141 6.8605957 C-6.41080078 6.0169043 -5.94416016 5.17321289 -5.46337891 4.30395508 C-5.04781738 3.52705322 -4.63225586 2.75015137 -4.20410156 1.94970703 C-2.67431641 0.25317383 -2.67431641 0.25317383 0 0 Z " fill="#EBEAEB" transform="translate(112.67431640625,135.746826171875)"/>
<path d="M0 0 C3.38644439 1.1288148 3.68598077 1.624253 5.48046875 4.52734375 C5.92197266 5.23697266 6.36347656 5.94660156 6.81835938 6.67773438 C7.27017578 7.42345703 7.72199219 8.16917969 8.1875 8.9375 C8.65091797 9.67935547 9.11433594 10.42121094 9.59179688 11.18554688 C13 16.72199466 13 16.72199466 13 19 C15.23543722 16.90774077 16.84357108 14.83308953 18.41015625 12.20703125 C18.84263672 11.49482422 19.27511719 10.78261719 19.72070312 10.04882812 C20.62143947 8.54760088 21.51984757 7.04497442 22.41601562 5.54101562 C23.06280273 4.47850586 23.06280273 4.47850586 23.72265625 3.39453125 C24.11203369 2.74331299 24.50141113 2.09209473 24.90258789 1.42114258 C25.26473389 0.95216553 25.62687988 0.48318848 26 0 C26.66 0 27.32 0 28 0 C29.06965282 2.69730001 29.11085726 3.73604539 27.96777344 6.45776367 C27.43700195 7.35213135 26.90623047 8.24649902 26.359375 9.16796875 C25.49505859 10.63073242 25.49505859 10.63073242 24.61328125 12.12304688 C23.99839844 13.13431641 23.38351563 14.14558594 22.75 15.1875 C21.85087891 16.72180664 21.85087891 16.72180664 20.93359375 18.28710938 C16.39615786 25.86794738 16.39615786 25.86794738 13 27 C10.6255212 23.26250175 8.27907065 19.50818721 5.9375 15.75 C4.92333008 14.15478516 4.92333008 14.15478516 3.88867188 12.52734375 C3.25380859 11.50253906 2.61894531 10.47773437 1.96484375 9.421875 C1.3730835 8.47924805 0.78132324 7.53662109 0.17163086 6.56542969 C-1 4 -1 4 -0.68530273 1.66113281 C-0.45915283 1.11295898 -0.23300293 0.56478516 0 0 Z " fill="#EBEAEB" transform="translate(83,115)"/>
<path d="M0 0 C3.39320986 3.11008729 5.64023656 6.40039426 8.00390625 10.33984375 C8.3684642 10.94381485 8.73302216 11.54778595 9.10862732 12.1700592 C10.26538486 14.0893135 11.41404127 16.01327079 12.5625 17.9375 C13.33735884 19.22623135 14.1127446 20.51464604 14.88867188 21.80273438 C16.93215522 25.1980222 18.96687717 28.59849664 21 32 C21.58128662 32.89017822 22.16257324 33.78035645 22.76147461 34.69750977 C24.42480777 37.78974217 23.84999009 39.67731147 23 43 C19.72568125 40.00510889 17.69303736 37.00646895 15.5625 33.125 C14.87817928 31.89478725 14.19182543 30.66570417 13.50390625 29.4375 C13.1186377 28.74914062 12.73336914 28.06078125 12.33642578 27.3515625 C9.62055087 22.57273401 6.80284145 17.85315243 4 13.125 C3.41162354 12.13129395 2.82324707 11.13758789 2.21704102 10.11376953 C0.81225184 7.74198293 -0.59341154 5.37071983 -2 3 C-1.34 2.01 -0.68 1.02 0 0 Z " fill="#E9E8E9" transform="translate(100,76)"/>
<path d="M0 0 C0.66 0.33 1.32 0.66 2 1 C1.46844171 5.8987196 0.00545779 9.22959994 -2.4921875 13.45703125 C-2.83879425 14.0454631 -3.185401 14.63389496 -3.54251099 15.24015808 C-4.27257542 16.47397088 -5.00734887 17.70500828 -5.74658203 18.93334961 C-6.87757528 20.8167886 -7.98836552 22.71113766 -9.09765625 24.60742188 C-9.81132443 25.80799125 -10.52612891 27.00788606 -11.2421875 28.20703125 C-11.8904248 29.2947583 -12.53866211 30.38248535 -13.20654297 31.50317383 C-15 34 -15 34 -18 35 C-19.08019135 31.7355543 -19.18503789 30.39396955 -17.69921875 27.23046875 C-16.70341797 25.72419922 -16.70341797 25.72419922 -15.6875 24.1875 C-14.95018086 23.05100174 -14.21321934 21.91427141 -13.4765625 20.77734375 C-12.87956543 19.87218018 -12.87956543 19.87218018 -12.27050781 18.94873047 C-9.97136378 15.42225705 -7.77788208 11.82943654 -5.5625 8.25 C-1.16366621 1.16366621 -1.16366621 1.16366621 0 0 Z " fill="#E7E6E7" transform="translate(88,83)"/>
<path d="M0 0 C3.69346926 1.23115642 3.86090074 2.12880649 5.5625 5.5 C7.11619318 8.90258539 7.11619318 8.90258539 10 11 C10.2475 10.29875 10.495 9.5975 10.75 8.875 C12.17180238 5.60485452 13.87246288 2.858878 16 0 C16.66 0 17.32 0 18 0 C18.80168206 2.30067206 19.18677067 3.52011648 18.28735352 5.83105469 C17.90506592 6.43852539 17.52277832 7.04599609 17.12890625 7.671875 C16.71962891 8.33574219 16.31035156 8.99960938 15.88867188 9.68359375 C15.45103516 10.36550781 15.01339844 11.04742187 14.5625 11.75 C14.12873047 12.44738281 13.69496094 13.14476563 13.24804688 13.86328125 C12.17647973 15.58249886 11.08967644 17.292203 10 19 C5.85630815 17.61876938 4.78596264 14.80496934 2.75 11.1875 C2.37359375 10.55779297 1.9971875 9.92808594 1.609375 9.27929688 C-1.06453395 4.59504095 -1.06453395 4.59504095 -0.734375 1.55078125 C-0.37085937 0.78314453 -0.37085937 0.78314453 0 0 Z " fill="#EAE9EA" transform="translate(88,107)"/>
<path d="M0 0 C0.66 0 1.32 0 2 0 C4.475 4.455 4.475 4.455 7 9 C-1.91 9 -10.82 9 -20 9 C-19.67 7.68 -19.34 6.36 -19 5 C-13.06 4.67 -7.12 4.34 -1 4 C-0.67 2.68 -0.34 1.36 0 0 Z " fill="#E9E8E9" transform="translate(131,119)"/>
<path d="M0 0 C0.79497894 0.00444122 1.58995789 0.00888245 2.4090271 0.01345825 C3.30980988 0.01360931 4.21059265 0.01376038 5.13867188 0.01391602 C6.11266937 0.02423859 7.08666687 0.03456116 8.09017944 0.04519653 C9.08617157 0.04802643 10.0821637 0.05085632 11.1083374 0.05377197 C14.29771813 0.06499063 17.48682072 0.09009822 20.67611694 0.11550903 C22.83496706 0.12553666 24.99382157 0.13466288 27.15267944 0.14285278 C32.45225393 0.16493543 37.75166557 0.19842945 43.05111694 0.24050903 C43.05111694 0.57050903 43.05111694 0.90050903 43.05111694 1.24050903 C41.75899292 1.25509155 40.4668689 1.26967407 39.1355896 1.28469849 C34.35324061 1.34255926 29.57136856 1.4197922 24.78939819 1.50296021 C22.71753668 1.53626726 20.64558316 1.564281 18.57357788 1.58694458 C15.59954522 1.62038466 12.62636015 1.67269409 9.65267944 1.72879028 C8.7224295 1.73518021 7.79217957 1.74157013 6.83374023 1.74815369 C5.97299896 1.76794785 5.11225769 1.787742 4.22543335 1.80813599 C3.46598419 1.81923904 2.70653503 1.8303421 1.92407227 1.84178162 C-0.35960205 2.10008151 -0.35960205 2.10008151 -1.94888306 5.24050903 C24.78111694 4.74550903 24.78111694 4.74550903 52.05111694 4.24050903 C52.05111694 4.90050903 52.05111694 5.56050903 52.05111694 6.24050903 C33.24111694 6.24050903 14.43111694 6.24050903 -4.94888306 6.24050903 C-3.49663454 0.43151496 -3.49663454 0.43151496 0 0 Z " fill="#464445" transform="translate(117.94888305664063,142.75949096679688)"/>
<path d="M0 0 C3.85674376 1.4756237 5.21823735 3.47006893 7.25 7 C7.77078125 7.886875 8.2915625 8.77375 8.828125 9.6875 C10 12 10 12 10 14 C7.625 13.8125 7.625 13.8125 5 13 C3.6875 10.4375 3.6875 10.4375 3 8 C0.66475218 10.25740623 -1.18705073 12.2805761 -3 15 C-4.32 15 -5.64 15 -7 15 C-6.31238981 11.34435091 -4.74550455 8.48132728 -2.9375 5.25 C-2.11572266 3.77273437 -2.11572266 3.77273437 -1.27734375 2.265625 C-0.64505859 1.14414063 -0.64505859 1.14414063 0 0 Z " fill="#E6E5E6" transform="translate(95,86)"/>
<path d="M0 0 C0.66 0.33 1.32 0.66 2 1 C1.50959527 6.4705493 -0.50622734 10.03692034 -3.375 14.5625 C-3.77460937 15.20896484 -4.17421875 15.85542969 -4.5859375 16.52148438 C-5.36182372 17.77591884 -6.14129839 19.02814281 -6.92480469 20.27783203 C-8.31278854 22.50100144 -9.6598777 24.74772995 -11 27 C-11.99 26.67 -12.98 26.34 -14 26 C-13.4218057 22.17201364 -12.32331895 19.46914308 -10.3125 16.171875 C-9.77882813 15.29015625 -9.24515625 14.4084375 -8.6953125 13.5 C-8.13585937 12.5925 -7.57640625 11.685 -7 10.75 C-6.44054687 9.82703125 -5.88109375 8.9040625 -5.3046875 7.953125 C-1.18268327 1.18268327 -1.18268327 1.18268327 0 0 Z " fill="#E9E8E9" transform="translate(75,76)"/>
<path d="M0 0 C4.01120503 4.6409836 7.009204 9.80506806 10.125 15.0625 C10.66253906 15.96033203 11.20007813 16.85816406 11.75390625 17.78320312 C13.95478691 21.47420623 16.12068621 25.13280208 18 29 C17.01 29.66 16.02 30.32 15 31 C12.59624984 27.04959789 10.19352306 23.09857594 7.79174805 19.14697266 C6.97432191 17.80240001 6.15661498 16.45799804 5.33862305 15.11376953 C4.16381378 13.18306419 2.99001132 11.25175 1.81640625 9.3203125 C1.26636681 8.41709763 1.26636681 8.41709763 0.70521545 7.49563599 C-1.88612829 3.22774341 -1.88612829 3.22774341 -3 1 C-2.01 0.67 -1.02 0.34 0 0 Z " fill="#2E2C2D" transform="translate(99,53)"/>
<path d="M0 0 C0.99 0.33 1.98 0.66 3 1 C2.37666027 3.95296424 1.43098208 6.27546792 -0.06640625 8.890625 C-0.46923828 9.59960938 -0.87207031 10.30859375 -1.28710938 11.0390625 C-1.70798828 11.76867187 -2.12886719 12.49828125 -2.5625 13.25 C-2.98724609 13.99507812 -3.41199219 14.74015625 -3.84960938 15.5078125 C-4.89546042 17.34098961 -5.94716192 19.17082677 -7 21 C-7.99 21 -8.98 21 -10 21 C-9.57813552 15.04020547 -7.80402161 11.43441872 -4.4375 6.5625 C-4.01275391 5.92634766 -3.58800781 5.29019531 -3.15039062 4.63476562 C-2.1114987 3.08226421 -1.05729864 1.54002488 0 0 Z " fill="#E9E8E9" transform="translate(79,83)"/>
<path d="M0 0 C-0.375 2.125 -0.375 2.125 -1 4 C-1.33 3.34 -1.66 2.68 -2 2 C-2.66 2 -3.32 2 -4 2 C-5.59343847 4.3901577 -7.06388734 6.76777333 -8.5 9.25 C-8.90347656 9.93191406 -9.30695313 10.61382812 -9.72265625 11.31640625 C-11.59455742 14.49802046 -13.3727318 17.6851267 -15 21 C-15.33 20.34 -15.66 19.68 -16 19 C-16.99 19.66 -17.98 20.32 -19 21 C-17.25324485 16.12079566 -14.75367013 11.73229422 -12.1875 7.25 C-11.76146484 6.47011719 -11.33542969 5.69023438 -10.89648438 4.88671875 C-7.67744496 -0.71372803 -7.67744496 -0.71372803 -4.30078125 -2.140625 C-2 -2 -2 -2 0 0 Z " fill="#363435" transform="translate(83,82)"/>
<path d="M0 0 C2.97 0.495 2.97 0.495 6 1 C5.67 2.98 5.34 4.96 5 7 C4.01 6.01 3.02 5.02 2 4 C-2.455 11.425 -2.455 11.425 -7 19 C-7.99 18.67 -8.98 18.34 -10 18 C-8.47146065 13.72813475 -6.28490519 10.00673137 -3.875 6.1875 C-3.50246094 5.59001953 -3.12992187 4.99253906 -2.74609375 4.37695312 C-1.8342952 2.91573749 -0.91764024 1.45755415 0 0 Z " fill="#403E40" transform="translate(73,73)"/>
<path d="M0 0 C2.61724095 2.36797991 4.32861729 4.89600354 6 8 C6 8.66 6 9.32 6 10 C6.66 9.67 7.32 9.34 8 9 C8 7.35 8 5.7 8 4 C8.99 3.67 9.98 3.34 11 3 C11.75 5.625 11.75 5.625 12 9 C10.0625 12.375 10.0625 12.375 8 15 C0.17307692 7.59615385 0.17307692 7.59615385 -0.1875 2.1875 C-0.125625 1.465625 -0.06375 0.74375 0 0 Z " fill="#2C2B2C" transform="translate(89,144)"/>
<path d="M0 0 C0.99 0 1.98 0 3 0 C2.402541 4.35176215 0.81643548 7.52603237 -1.375 11.3125 C-1.98085937 12.38113281 -2.58671875 13.44976562 -3.2109375 14.55078125 C-4.09652344 15.76314453 -4.09652344 15.76314453 -5 17 C-5.99 17 -6.98 17 -8 17 C-8 12.90540797 -6.03072724 10.23249165 -4 6.8125 C-3.6184375 6.15830078 -3.236875 5.50410156 -2.84375 4.83007812 C-1.90161068 3.21666455 -0.95155734 1.60787702 0 0 Z " fill="#323031" transform="translate(81,87)"/>
<path d="M0 0 C0.33 0.66 0.66 1.32 1 2 C2.89274658 1.99214478 2.89274658 1.99214478 4.82373047 1.98413086 C9.49397068 1.96606542 14.16420779 1.95456231 18.83447266 1.94506836 C20.85791543 1.94003169 22.88135456 1.93320211 24.90478516 1.92456055 C27.80892843 1.91246588 30.71302369 1.90676512 33.6171875 1.90234375 C34.52556366 1.89718246 35.43393982 1.89202118 36.36984253 1.88670349 C37.21056305 1.88662796 38.05128357 1.88655243 38.91748047 1.88647461 C40.03000687 1.88314369 40.03000687 1.88314369 41.16500854 1.87974548 C43 2 43 2 45 3 C45.625 5.0625 45.625 5.0625 46 7 C45.01 7 44.02 7 43 7 C42.34 6.01 41.68 5.02 41 4 C39.15274772 3.5267707 39.15274772 3.5267707 37.00927734 3.56762695 C36.18857758 3.54783279 35.36787781 3.52803864 34.52230835 3.50764465 C33.63580597 3.50125473 32.74930359 3.49486481 31.8359375 3.48828125 C30.47512558 3.46135445 30.47512558 3.46135445 29.08682251 3.43388367 C26.18292928 3.37960573 23.279202 3.34582927 20.375 3.3125 C18.40883098 3.27934233 16.44268391 3.24485413 14.4765625 3.20898438 C9.65116112 3.12386935 4.82581045 3.05714194 0 3 C0 2.01 0 1.02 0 0 Z " fill="#5A5859" transform="translate(34,141)"/>
<path d="M0 0 C2 1 2 1 4 4 C3.6758631 7.32240324 3.39223697 8.60776303 1 11 C-0.66666667 11 -2.33333333 11 -4 11 C-3.56179109 6.44262737 -3.14958831 3.42346555 0 0 Z " fill="#757475" transform="translate(86,58)"/>
<path d="M0 0 C0.79719955 0.00222061 1.59439911 0.00444122 2.41575623 0.00672913 C3.31661453 0.00680466 4.21747284 0.00688019 5.14562988 0.00695801 C6.12478867 0.01211929 7.10394745 0.01728058 8.11277771 0.02259827 C9.11018478 0.02401321 10.10759186 0.02542816 11.13522339 0.02688599 C14.3348027 0.03250337 17.53431315 0.04505881 20.73387146 0.05775452 C22.89728191 0.06276728 25.06069345 0.06733057 27.22410583 0.07142639 C32.53988471 0.08247845 37.85562317 0.09923348 43.17137146 0.12025452 C43.17137146 0.45025452 43.17137146 0.78025452 43.17137146 1.12025452 C41.87924744 1.13483704 40.58712341 1.14941956 39.25584412 1.16444397 C34.47349513 1.22230474 29.69162307 1.29953768 24.90965271 1.38270569 C22.83779119 1.41601275 20.76583767 1.44402649 18.6938324 1.46669006 C15.71979973 1.50013014 12.74661467 1.55243957 9.77293396 1.60853577 C8.84268402 1.61492569 7.91243408 1.62131561 6.95399475 1.62789917 C6.09325348 1.64769333 5.23251221 1.66748749 4.34568787 1.68788147 C3.58623871 1.69898453 2.82678955 1.71008759 2.04432678 1.7215271 C-0.23934754 1.97982699 -0.23934754 1.97982699 -1.82862854 5.12025452 C-2.48862854 5.12025452 -3.14862854 5.12025452 -3.82862854 5.12025452 C-2.71272468 0.17839457 -2.71272468 0.17839457 0 0 Z " fill="#616061" transform="translate(117.82862854003906,142.87974548339844)"/>
<path d="M0 0 C0.99 0.33 1.98 0.66 3 1 C2.67 2.32 2.34 3.64 2 5 C7.94 5 13.88 5 20 5 C20 5.33 20 5.66 20 6 C13.73 6 7.46 6 1 6 C0.67 5.34 0.34 4.68 0 4 C-0.99 4.66 -1.98 5.32 -3 6 C-1.125 1.125 -1.125 1.125 0 0 Z " fill="#CDCCCD" transform="translate(62,119)"/>
<path d="M0 0 C3.33557632 2.9905167 5.15083921 5.93184627 7 10 C6.01 10.66 5.02 11.32 4 12 C-0.57142857 4.71428571 -0.57142857 4.71428571 0 0 Z " fill="#2F2D2E" transform="translate(87,128)"/>
<path d="M0 0 C2.61724095 2.36797991 4.32861729 4.89600354 6 8 C6 8.66 6 9.32 6 10 C6.66 10.33 7.32 10.66 8 11 C7.34 11 6.68 11 6 11 C5.67 11.66 5.34 12.32 5 13 C-0.74031891 4.738041 -0.74031891 4.738041 0 0 Z " fill="#3A393A" transform="translate(89,144)"/>
<path d="M0 0 C4.95 0 9.9 0 15 0 C15 0.66 15 1.32 15 2 C4.44191344 3.51708428 4.44191344 3.51708428 0 1 C0 0.67 0 0.34 0 0 Z " fill="#282628" transform="translate(82,0)"/>
<path d="M0 0 C0.66 0.66 1.32 1.32 2 2 C1.625 4.125 1.625 4.125 1 6 C0.67 5.34 0.34 4.68 0 4 C-0.66 4 -1.32 4 -2 4 C-2.495 4.495 -2.99 4.99 -3.5 5.5 C-3.995 5.995 -4.49 6.49 -5 7 C-5.66 7 -6.32 7 -7 7 C-6.42655063 4.13275314 -6.1385485 3.1385485 -4 1 C-2 0.25 -2 0.25 0 0 Z " fill="#4F4E4F" transform="translate(81,80)"/>
<path d="M0 0 C0.66 0.66 1.32 1.32 2 2 C1.67028521 5.29714793 1.3773161 6.6226839 -1 9 C-2.1875 6.75 -2.1875 6.75 -3 4 C-1.625 1.6875 -1.625 1.6875 0 0 Z " fill="#5C5A5B" transform="translate(59,108)"/>
<path d="M0 0 C1.32 1.65 2.64 3.3 4 5 C3.01 5.99 2.02 6.98 1 8 C-0.98 4.535 -0.98 4.535 -3 1 C-2.01 0.67 -1.02 0.34 0 0 Z " fill="#353334" transform="translate(99,53)"/>
<path d="M0 0 C0.99 0.33 1.98 0.66 3 1 C2.01 2.98 1.02 4.96 0 7 C-0.99 6.67 -1.98 6.34 -3 6 C-1.125 1.125 -1.125 1.125 0 0 Z " fill="#373637" transform="translate(66,85)"/>
<path d="M0 0 C1.125 1.75 1.125 1.75 2 4 C1.125 6.25 1.125 6.25 0 8 C-0.33 7.34 -0.66 6.68 -1 6 C-1.99 6.66 -2.98 7.32 -4 8 C-2.87548273 5.0280615 -1.77706209 2.66559313 0 0 Z " fill="#494749" transform="translate(81,60)"/>
<path d="M0 0 C0.99 0 1.98 0 3 0 C2.67 1.65 2.34 3.3 2 5 C0.68 5.33 -0.64 5.66 -2 6 C-1.49396008 3.83125748 -1.00016187 2.00032373 0 0 Z " fill="#302E2F" transform="translate(73,86)"/>
<path d="M0 0 C0.66 0 1.32 0 2 0 C2.125 2.875 2.125 2.875 2 6 C1.34 6.66 0.68 7.32 0 8 C-1.125 5.6875 -1.125 5.6875 -2 3 C-1.34 2.01 -0.68 1.02 0 0 Z " fill="#6F6D6E" transform="translate(90,79)"/>
<path d="M0 0 C0.66 0 1.32 0 2 0 C2.6875 1.75 2.6875 1.75 3 4 C1.5625 6.25 1.5625 6.25 0 8 C0 6.35 0 4.7 0 3 C-0.66 2.67 -1.32 2.34 -2 2 C-1.34 1.34 -0.68 0.68 0 0 Z " fill="#2F2D2F" transform="translate(92,76)"/>
<path d="M0 0 C1.65 0 3.3 0 5 0 C4.67 1.65 4.34 3.3 4 5 C3.34 5 2.68 5 2 5 C1.34 3.35 0.68 1.7 0 0 Z " fill="#DBDADB" transform="translate(94,107)"/>
</svg>
