<?xml version="1.0" encoding="UTF-8"?>
<svg version="1.1" xmlns="http://www.w3.org/2000/svg" width="512" height="512">
<path d="M0 0 C168.96 0 337.92 0 512 0 C512 168.96 512 337.92 512 512 C343.04 512 174.08 512 0 512 C0 343.04 0 174.08 0 0 Z " fill="#1D1B1C" transform="translate(0,0)"/>
<path d="M0 0 C4.02286045 1.49492632 5.29652859 3.67566721 7.35546875 7.35546875 C7.97365479 8.44601563 8.59184082 9.5365625 9.22875977 10.66015625 C9.8817355 11.83590289 10.53464772 13.01168481 11.1875 14.1875 C11.8606495 15.3809133 12.53505221 16.57362056 13.21069336 17.765625 C14.2164151 19.54021388 15.22144958 21.31514131 16.2224884 23.09237671 C18.76511915 27.60561328 21.37785388 32.07006345 24.0625 36.5 C24.69285156 37.5415625 25.32320313 38.583125 25.97265625 39.65625 C26.64167969 40.7596875 27.31070313 41.863125 28 43 C28.92234017 44.53878377 29.84416672 46.07787547 30.765625 47.6171875 C33.04130338 51.41271045 35.33366297 55.19758995 37.63671875 58.9765625 C45.33392025 71.60669274 52.96615224 84.27167023 60.5 97 C66.18050988 106.5964297 71.89379514 116.17062107 77.69119263 125.69696045 C78.73877796 127.41905245 79.78453688 129.14224095 80.82983398 130.86572266 C83.9653679 136.03070067 87.11108446 141.18841989 90.29855347 146.32148743 C91.37641895 148.06061962 92.44852119 149.80315913 93.51855469 151.54711914 C94.84568164 153.70790121 96.18301694 155.86245872 97.53222656 158.00952148 C98.12100586 158.97317627 98.70978516 159.93683105 99.31640625 160.9296875 C99.83662354 161.76741699 100.35684082 162.60514648 100.89282227 163.46826172 C102.22531522 166.51521914 102.27363557 168.70505426 102 172 C100.90625 174.5546875 100.90625 174.5546875 99.5 176.875 C99.0359375 177.65617188 98.571875 178.43734375 98.09375 179.2421875 C97.55234375 180.11230469 97.55234375 180.11230469 97 181 C96.34 181 95.68 181 95 181 C94.60844727 180.31711914 94.21689453 179.63423828 93.81347656 178.93066406 C86.77679044 166.66883798 79.71702738 154.42667924 72.40991211 142.32324219 C68.8373977 136.40528149 65.31699697 130.45845172 61.8125 124.5 C54.68249323 112.39728167 47.38275961 100.39883261 40.07373047 88.40380859 C38.11142596 85.18289389 36.15101844 81.9608345 34.19140625 78.73828125 C29.35947973 70.79340369 24.52317271 62.85121162 19.67456055 54.91650391 C18.78101923 53.4542289 17.88793705 51.9916732 16.99536133 50.52880859 C14.63519368 46.66319146 12.26216628 42.80604289 9.875 38.95703125 C9.36283936 38.12792236 8.85067871 37.29881348 8.32299805 36.44458008 C7.33592358 34.84710527 6.34534571 33.25178847 5.35083008 31.65893555 C4.69183716 30.59026245 4.69183716 30.59026245 4.01953125 29.5 C3.62870361 28.8709375 3.23787598 28.241875 2.83520508 27.59375 C2 26 2 26 2 24 C1.34 24 0.68 24 0 24 C-0.23460937 24.66 -0.46921875 25.32 -0.7109375 26 C-2.37330953 29.86879308 -4.46788789 33.38930504 -6.625 37 C-7.07520508 37.75837158 -7.52541016 38.51674316 -7.98925781 39.2980957 C-14.04841186 49.47863394 -20.31631328 59.51282776 -26.6875 69.5 C-36.58068727 85.00866823 -46.21145944 100.67264242 -55.75854492 116.39624023 C-60.27996641 123.83665769 -64.8571632 131.24124259 -69.45043945 138.63745117 C-72.93320026 144.25365051 -76.35768373 149.90080986 -79.73925781 155.57836914 C-84.04620979 162.78900805 -88.52610193 169.89219951 -93 177 C-96.62480591 175.79173136 -97.3902273 174.15803355 -99.328125 170.984375 C-100.2662329 168.21368421 -99.87456477 166.79699517 -99 164 C-97.79110605 161.55924024 -96.5478379 159.22781142 -95.1875 156.875 C-94.79079102 156.17906738 -94.39408203 155.48313477 -93.98535156 154.76611328 C-90.40754158 148.56063425 -86.58143584 142.52089743 -82.72314453 136.48730469 C-78.87032991 130.44134943 -75.18667135 124.31036152 -71.5625 118.125 C-67.14537219 110.59318813 -62.65746253 103.11232337 -58.0625 95.6875 C-57.54308838 94.84654785 -57.02367676 94.0055957 -56.48852539 93.13916016 C-53.51629631 88.35506329 -50.4496024 83.64739094 -47.31030273 78.97143555 C-45.80501518 76.70663268 -44.38269397 74.4040264 -43 72.0625 C-42.50371094 71.22589844 -42.00742188 70.38929688 -41.49609375 69.52734375 C-40.75552734 68.27630859 -40.75552734 68.27630859 -40 67 C-39.02159417 65.37454179 -38.04242443 63.74954316 -37.0625 62.125 C-34.28291696 57.50203812 -31.58533354 52.83417356 -28.90625 48.15234375 C-27.368643 45.6096207 -25.77520978 43.15601395 -24.11328125 40.6953125 C-21.10467155 36.2160869 -18.36475986 31.62049254 -15.6875 26.9375 C-15.22037598 26.12619629 -14.75325195 25.31489258 -14.27197266 24.47900391 C-10.71201354 18.28257455 -7.19927886 12.05949437 -3.72924805 5.81225586 C-1.10473146 1.10473146 -1.10473146 1.10473146 0 0 Z " fill="#F6F5F6" transform="translate(258,69)"/>
<path d="M0 0 C3.61322681 1.20440894 3.90340374 2.0203395 5.79296875 5.21484375 C6.33252197 6.11533447 6.8720752 7.0158252 7.42797852 7.94360352 C8.29894165 9.42558228 8.29894165 9.42558228 9.1875 10.9375 C10.44962679 13.05001357 11.71268299 15.16197208 12.9765625 17.2734375 C13.6355957 18.37913086 14.29462891 19.48482422 14.97363281 20.62402344 C18.28261076 26.13686043 21.67737163 31.59622939 25.0625 37.0625 C31.71566458 47.84145947 38.1946868 58.71457631 44.60839844 69.63720703 C47.63681672 74.7791425 50.71935874 79.88863525 53.79736328 85.00097656 C55.16740922 87.2782677 56.53506174 89.55698584 57.90234375 91.8359375 C58.41047607 92.68285156 58.9186084 93.52976562 59.44213867 94.40234375 C60.47273092 96.12080504 61.50284919 97.83955067 62.5324707 99.55859375 C64.93031372 103.56028179 67.33534307 107.55697718 69.765625 111.5390625 C70.18714844 112.23257813 70.60867188 112.92609375 71.04296875 113.640625 C71.82840848 114.93189809 72.61729569 116.22108258 73.41015625 117.5078125 C76 121.7757198 76 121.7757198 76 124 C61.91513931 124.02362477 47.8302818 124.04105441 33.7454052 124.05181217 C27.20184507 124.05698116 20.65829845 124.06396679 14.11474609 124.07543945 C-42.31233912 124.17187854 -42.31233912 124.17187854 -66 123 C-64.84879428 119.10361143 -63.81028541 115.9788334 -61 113 C-58.81924152 112.50780869 -58.81924152 112.50780869 -56.23542786 112.51898193 C-55.25526199 112.51348328 -54.27509613 112.50798462 -53.26522827 112.50231934 C-51.65437851 112.52389099 -51.65437851 112.52389099 -50.01098633 112.54589844 C-48.87913406 112.54531433 -47.7472818 112.54473022 -46.58113098 112.54412842 C-42.83112165 112.5469204 -39.08190213 112.57806649 -35.33203125 112.609375 C-32.73557469 112.61683339 -30.13911251 112.62252821 -27.54264832 112.62652588 C-21.40146934 112.64025024 -15.26061746 112.6717916 -9.11956185 112.71192384 C-2.12812987 112.75662225 4.86331566 112.77862367 11.85485494 112.79870558 C26.23672284 112.84052404 40.61835132 112.91088808 55 113 C54.04309492 111.23858229 53.0853342 109.47762941 52.12721252 107.71687317 C51.59395135 106.73619275 51.06069017 105.75551233 50.51126957 104.74511433 C48.79873215 101.63441117 47.00832445 98.60134503 45.15234375 95.57421875 C44.130802 93.90166016 44.130802 93.90166016 43.08862305 92.1953125 C42.56236832 91.33728027 42.56236832 91.33728027 42.02548218 90.46191406 C40.14103288 87.38852426 38.26575432 84.30955093 36.390625 81.23046875 C36.0153215 80.61440765 35.64001801 79.99834656 35.25334167 79.36361694 C31.31075005 72.88278733 27.45346234 66.3525912 23.60766602 59.81396484 C20.06458218 53.79233357 16.48123454 47.79649719 12.875 41.8125 C-5.70107118 10.95910501 -5.70107118 10.95910501 -5 5 C-2.5 2.125 -2.5 2.125 0 0 Z " fill="#F7F6F7" transform="translate(376,271)"/>
<path d="M0 0 C0.66 0 1.32 0 2 0 C2.474375 0.969375 2.94875 1.93875 3.4375 2.9375 C4.70193947 5.80477437 4.70193947 5.80477437 6 7 C5.66673939 12.93052401 3.71817209 16.99101581 0.75 22.0625 C0.30817383 22.83706543 -0.13365234 23.61163086 -0.58886719 24.40966797 C-2.04447183 26.94866555 -3.51916862 29.4756393 -5 32 C-5.50144531 32.85609863 -6.00289063 33.71219727 -6.51953125 34.59423828 C-9.18807356 39.14004943 -11.87297169 43.6759317 -14.56640625 48.20703125 C-18.13954713 54.22316992 -21.66666991 60.26563837 -25.1875 66.3125 C-29.22032828 73.23437017 -33.25370749 80.15581215 -37.3125 87.0625 C-37.7058252 87.7320874 -38.09915039 88.4016748 -38.50439453 89.09155273 C-40.50928681 92.49634783 -42.53223436 95.88919691 -44.578125 99.26953125 C-44.99537842 99.95974365 -45.41263184 100.64995605 -45.8425293 101.36108398 C-46.63282791 102.66570141 -47.42579358 103.96870846 -48.22192383 105.26977539 C-49.77723055 107.83504938 -51.04725758 110.14177274 -52 113 C-15.04 113 21.92 113 60 113 C64 121 64 121 64 123 C57.42511043 124.19830433 50.94022574 124.13366526 44.27172852 124.11352539 C42.36824898 124.11374443 42.36824898 124.11374443 40.42631531 124.1139679 C36.96401599 124.11425363 33.50175164 124.10839309 30.03946042 124.10139394 C26.41465004 124.09512313 22.78983877 124.09455366 19.1650238 124.09336853 C12.30871796 124.09026618 5.45242815 124.08206761 -1.40387064 124.07201904 C-9.21283018 124.06082381 -17.0217905 124.05533887 -24.83075607 124.05032361 C-40.88718008 124.03988404 -56.94358799 124.02230589 -73 124 C-72.26091962 119.81785996 -71.03609307 117.03001825 -68.78125 113.40625 C-68.10529785 112.30893555 -67.4293457 111.21162109 -66.73291016 110.08105469 C-66.18851288 109.20821838 -66.18851288 109.20821838 -65.63311768 108.31774902 C-63.67403019 105.17497803 -61.74089848 102.01627184 -59.8046875 98.859375 C-59.40349701 98.20656555 -59.00230652 97.5537561 -58.58895874 96.88116455 C-54.50663621 90.22553605 -50.55636683 83.49553458 -46.625 76.75 C-45.21810161 74.33946169 -43.81040597 71.9293899 -42.40234375 69.51953125 C-41.87109642 68.61014549 -41.87109642 68.61014549 -41.32911682 67.68238831 C-35.02849816 56.90745955 -28.6381169 46.18521229 -22.25097656 35.46142578 C-19.95491261 31.60635538 -17.66504772 27.74768602 -15.37890625 23.88671875 C-3.69885954 4.20828331 -3.69885954 4.20828331 0 0 Z " fill="#F5F4F5" transform="translate(141,271)"/>
<path d="M0 0 C3.62408253 3.40749141 6.30148469 6.75336449 8.85546875 11.015625 C9.37011436 11.86799995 9.37011436 11.86799995 9.89515686 12.7375946 C10.99964392 14.57093986 12.09365747 16.41028784 13.1875 18.25 C13.95417032 19.52712382 14.72142701 20.80389581 15.48925781 22.08032227 C19.84104508 29.32665647 24.14029611 36.60383856 28.39770508 43.90600586 C32.16676508 50.34577772 36.11139455 56.67399798 40.05273438 63.00927734 C44.16011145 69.61966222 48.18788925 76.27349245 52.17895508 82.95458984 C57.50902042 91.87036728 62.90610455 100.74516991 68.30175781 109.62133789 C68.83472725 110.49817734 68.83472725 110.49817734 69.37846375 111.39273071 C70.34851327 112.98844231 71.31889857 114.58394978 72.28930664 116.17944336 C72.85383545 117.11022705 73.41836426 118.04101074 74 119 C74.56001709 119.8876001 75.12003418 120.7752002 75.69702148 121.68969727 C77.4330379 124.76781669 77.48951888 126.50343656 77 130 C75.83842737 132.49411267 74.48997952 134.671907 73 137 C72.34 137 71.68 137 71 137 C69.72583008 135.19360352 69.72583008 135.19360352 68.26953125 132.62890625 C67.72151855 131.67467773 67.17350586 130.72044922 66.60888672 129.73730469 C66.0160791 128.68961914 65.42327148 127.64193359 64.8125 126.5625 C63.54179393 124.3494391 62.26961146 122.13722538 60.99609375 119.92578125 C60.66784607 119.35419281 60.33959839 118.78260437 60.00140381 118.19369507 C56.53511431 112.16670136 52.96256818 106.20532609 49.375 100.25 C48.7464209 99.20545654 48.1178418 98.16091309 47.47021484 97.0847168 C46.23171308 95.02724729 44.99279134 92.97003052 43.75341797 90.91308594 C42.12479155 88.20732564 40.50058993 85.49898814 38.87890625 82.7890625 C28.8434109 66.01976463 18.66422083 49.33809386 8.46264648 32.66943359 C7.65807124 31.35439189 6.85480816 30.03854593 6.05322266 28.72167969 C5.11321519 27.18507036 4.15728085 25.65823024 3.19921875 24.1328125 C2 22 2 22 2 20 C1.34 20 0.68 20 0 20 C-0.25007813 20.515625 -0.50015625 21.03125 -0.7578125 21.5625 C-7.47536042 34.74410347 -15.33785903 47.35658939 -23 60 C-26.04675207 58.66901721 -26.93461772 58.10145526 -28.8125 55.1875 C-30.16221097 51.56459162 -30.11423883 50.6212762 -29 47 C-27.62364467 44.57334417 -26.21383139 42.26532295 -24.6875 39.9375 C-23.77682361 38.5167914 -22.86805839 37.09485641 -21.9609375 35.671875 C-21.47979492 34.91841797 -20.99865234 34.16496094 -20.50292969 33.38867188 C-17.86667447 29.19875618 -15.34455927 24.94089608 -12.8125 20.6875 C-8.6524459 13.71654483 -4.43127842 6.80294857 0 0 Z " fill="#F4F3F4" transform="translate(256,145)"/>
<path d="M0 0 C3.55160136 2.36773424 4.45641562 4.06385984 6 8 C5.58401456 11.54228701 4.53633434 14.23624348 2.8125 17.3359375 C2.36551758 18.14546875 1.91853516 18.955 1.45800781 19.7890625 C0.97686523 20.64242188 0.49572266 21.49578125 0 22.375 C-0.4940332 23.261875 -0.98806641 24.14875 -1.49707031 25.0625 C-5.12163893 31.53311252 -8.86962744 37.92033471 -12.734375 44.25 C-14.74754608 47.55263682 -16.69483951 50.89221647 -18.64160156 54.234375 C-19.27084534 55.31428711 -19.90008911 56.39419922 -20.54840088 57.50683594 C-21.02742859 58.32958008 -21.5064563 59.15232422 -22 60 C-20.94843719 59.99254257 -19.89687439 59.98508514 -18.81344604 59.97740173 C-8.89639357 59.91294333 1.01976602 59.89581089 10.93699837 59.92484188 C16.03556991 59.93825064 21.1329999 59.93506938 26.23144531 59.89379883 C31.15331403 59.85457088 36.0733832 59.85915095 40.99526596 59.89392281 C42.87151893 59.89951557 44.74788744 59.88940434 46.62396622 59.86323357 C61.30639441 59.67348123 61.30639441 59.67348123 65.51702881 62.97146606 C67.90295248 66.39015272 69 68.81465607 69 73 C32.37 73 -4.26 73 -42 73 C-41.07293243 68.36466213 -39.70425709 65.38067176 -37.30859375 61.4609375 C-36.93144226 60.83052048 -36.55429077 60.20010345 -36.16571045 59.55058289 C-34.92971521 57.48792021 -33.68369715 55.43151205 -32.4375 53.375 C-31.57714475 51.94372022 -30.71753332 50.51199307 -29.85864258 49.07983398 C-28.10182705 46.15135702 -26.34181234 43.22483647 -24.58007812 40.29931641 C-22.16244297 36.27831121 -19.77102373 32.24235523 -17.390625 28.19921875 C-17.03126358 27.58939148 -16.67190216 26.97956421 -16.301651 26.35125732 C-14.61693283 23.49171849 -12.93416914 20.63106038 -11.25366211 17.76904297 C-7.67993504 11.71666359 -3.97682775 5.79621958 0 0 Z " fill="#F3F2F3" transform="translate(150,300)"/>
<path d="M0 0 C2.58351151 0.36088351 3.72248357 0.67415444 5.44116211 2.69213867 C6.10257202 3.79392456 6.10257202 3.79392456 6.77734375 4.91796875 C7.28426758 5.74925293 7.79119141 6.58053711 8.31347656 7.43701172 C8.8494043 8.34467285 9.38533203 9.25233398 9.9375 10.1875 C10.78586426 11.59153076 10.78586426 11.59153076 11.65136719 13.02392578 C13.44848201 16.00769271 15.22620047 19.00232239 17 22 C17.85585693 23.43931885 17.85585693 23.43931885 18.72900391 24.90771484 C21.49816666 29.56548644 24.25511108 34.23022793 27 38.90234375 C29.5612547 43.26084252 32.14531724 47.60483822 34.75 51.9375 C35.09957764 52.52023682 35.44915527 53.10297363 35.80932617 53.70336914 C37.7109078 56.86971334 39.62575517 60.02753874 41.55078125 63.1796875 C41.97069336 63.87070557 42.39060547 64.56172363 42.82324219 65.27368164 C43.63139388 66.6032472 44.44308095 67.93067221 45.25878906 69.25561523 C48 73.77492555 48 73.77492555 48 76 C15.66 76 -16.68 76 -50 76 C-48.17848981 66.89244906 -48.17848981 66.89244906 -44 64 C-38.66919812 62.9899196 -33.37731626 63.18616903 -27.98046875 63.31640625 C-26.39579965 63.32946962 -24.81110218 63.33943031 -23.22639465 63.34642029 C-19.06472073 63.373089 -14.90476971 63.44179733 -10.74377441 63.51934814 C-6.49413358 63.59108531 -2.24421302 63.62295391 2.00585938 63.65820312 C10.33802838 63.73317282 18.6687996 63.85256837 27 64 C23.85126436 57.58165571 20.70639288 51.24029738 16.94140625 45.16015625 C16.58916489 44.58647812 16.23692352 44.01279999 15.87400818 43.42173767 C14.77483103 41.63240111 13.66939712 39.84706929 12.5625 38.0625 C8.25423434 31.10372893 3.98633063 24.12550709 -0.03515625 16.99609375 C-0.89379272 15.4810022 -0.89379272 15.4810022 -1.76977539 13.93530273 C-3.13732333 10.672348 -3.34853113 8.503302 -3 5 C-1.5 2.125 -1.5 2.125 0 0 Z " fill="#F2F1F2" transform="translate(364,297)"/>
<path d="M0 0 C2.26801922 2.12394592 3.9162812 4.25685597 5.5390625 6.90234375 C6.02818115 7.69560059 6.5172998 8.48885742 7.02124023 9.30615234 C7.55048096 10.17449707 8.07972168 11.0428418 8.625 11.9375 C9.18840088 12.8548291 9.75180176 13.7721582 10.33227539 14.71728516 C12.22736443 17.80799052 14.11471143 20.90330729 16 24 C16.67498535 25.10843262 17.3499707 26.21686523 18.04541016 27.35888672 C21.99900551 33.85472704 25.94318024 40.35626393 29.88432312 46.85966492 C38.88242734 61.70740798 47.92678273 76.52551906 57.03710938 91.3046875 C61.97583135 99.32116375 66.88210922 107.35674369 71.74829102 115.41748047 C74.84208111 120.52439279 78.00098371 125.57889154 81.2421875 130.59375 C81.94206787 131.68478027 82.64194824 132.77581055 83.36303711 133.89990234 C84.71854952 136.00727188 86.08608605 138.10696849 87.46704102 140.19775391 C88.37860962 141.61967041 88.37860962 141.61967041 89.30859375 143.0703125 C89.85314209 143.90320801 90.39769043 144.73610352 90.95874023 145.59423828 C92.25072425 148.57928178 92.01479752 149.94597232 91 153 C89.7295036 155.04049422 88.40568804 157.05017465 87 159 C83.55240137 157.85080046 83.36904513 157.41009359 81.6875 154.37890625 C81.25775879 153.61787598 80.82801758 152.8568457 80.38525391 152.07275391 C79.92812012 151.24437012 79.47098633 150.41598633 79 149.5625 C78.00963628 147.81016592 77.01740345 146.05888707 76.0234375 144.30859375 C75.26691895 142.97223877 75.26691895 142.97223877 74.49511719 141.60888672 C72.27609007 137.73682209 69.96227109 133.92653915 67.625 130.125 C67.17487549 129.3918457 66.72475098 128.65869141 66.26098633 127.90332031 C62.20451434 121.31092987 58.12060943 114.7354155 54.04077148 108.1574707 C49.46796172 100.77650134 44.94988655 93.36308692 40.44433594 85.94091797 C36.64860992 79.69313203 32.82306218 73.4645736 28.98071289 67.24536133 C22.77888161 57.20490106 16.63712997 47.13650569 10.68505859 36.94555664 C8.00645126 32.36337264 5.28047738 27.82281061 2.45703125 23.328125 C1.60286621 21.95406494 1.60286621 21.95406494 0.73144531 20.55224609 C-0.35630847 18.80732099 -1.45667224 17.07017441 -2.57128906 15.34228516 C-3.05178711 14.56675293 -3.53228516 13.7912207 -4.02734375 12.9921875 C-4.45781006 12.31526855 -4.88827637 11.63834961 -5.33178711 10.94091797 C-6 9 -6 9 -5.25610352 6.92236328 C-3.65894552 4.47804412 -1.86822205 2.24186646 0 0 Z " fill="#F4F3F4" transform="translate(263,119)"/>
<path d="M0 0 C0.33 0.99 0.66 1.98 1 3 C1.66 3 2.32 3 3 3 C4.6875 4.25 4.6875 4.25 6 6 C5.75 7.9375 5.75 7.9375 5 10 C4.65805312 11.33115034 4.323482 12.66424243 4 14 C4.57692093 13.9622496 5.15384186 13.92449921 5.74824524 13.88560486 C11.79817802 13.50708214 17.84472632 13.25225781 23.90356445 13.06616211 C26.15788428 12.98107821 28.41127671 12.86534798 30.66235352 12.7175293 C48.75339893 11.56005484 48.75339893 11.56005484 54.01852417 15.51699829 C57.56257714 19.4622504 59.81704112 23.99147171 61.97769165 28.79977417 C63.44062056 31.94830952 65.2603987 34.73316543 67.15234375 37.64453125 C70.46901981 43.03151367 73.75865926 48.43500916 77.05175781 53.83642578 C78.8672748 56.78447956 80.71831365 59.70586759 82.5859375 62.62109375 C94.54099376 81.47850988 94.54099376 81.47850988 94 91 C92.03125 93.375 92.03125 93.375 90 95 C85.8041367 88.79863728 81.79136362 82.50590416 77.875 76.125 C73.07407693 68.33533132 68.22786791 60.57684146 63.32983398 52.84790039 C60.91732275 49.03966825 58.51343111 45.22670751 56.1328125 41.3984375 C55.67801514 40.66729736 55.22321777 39.93615723 54.75463867 39.18286133 C53.90425445 37.81389247 53.0553506 36.4440024 52.20825195 35.07299805 C51.1523376 33.37353428 50.07707911 31.68612953 49 30 C48.58316452 29.28479187 48.16632904 28.56958374 47.73686218 27.83270264 C46.10461827 25.75590497 46.10461827 25.75590497 43.36140442 25.48101807 C42.3021727 25.47213562 41.24294098 25.46325317 40.15161133 25.45410156 C38.9505928 25.43438293 37.74957428 25.41466431 36.51216125 25.39434814 C35.21521835 25.39311951 33.91827545 25.39189087 32.58203125 25.390625 C31.24108377 25.37564462 29.90015476 25.35891776 28.55924988 25.34051514 C25.0329199 25.29681206 21.50683879 25.27683646 17.98028564 25.26177979 C14.38058741 25.24221896 10.78115838 25.20024798 7.18164062 25.16015625 C0.12119623 25.08482279 -6.93922877 25.03455057 -14 25 C-13.31679013 21.21222719 -12.4026412 18.63966995 -10.3125 15.390625 C-9.77882812 14.55402344 -9.24515625 13.71742188 -8.6953125 12.85546875 C-8.13585937 11.99566406 -7.57640625 11.13585937 -7 10.25 C-6.44054687 9.37472656 -5.88109375 8.49945313 -5.3046875 7.59765625 C-1.19521104 1.19521104 -1.19521104 1.19521104 0 0 Z " fill="#F1F0F1" transform="translate(166,317)"/>
<path d="M0 0 C1.58361328 0.13921875 1.58361328 0.13921875 3.19921875 0.28125 C4.80216797 0.38953125 4.80216797 0.38953125 6.4375 0.5 C7.64986328 0.63921875 7.64986328 0.63921875 8.88671875 0.78125 C8.31905905 4.86410351 7.02733913 7.47928165 4.73828125 10.88671875 C1.0426729 16.51484976 -2.37106552 22.26471897 -5.73828125 28.09375 C-6.96959141 30.21380929 -8.20137255 32.3335951 -9.43359375 34.453125 C-10.04879883 35.51208984 -10.66400391 36.57105469 -11.29785156 37.66210938 C-15.63037028 45.1059312 -20.00645465 52.5236625 -24.41308594 59.92382812 C-25.60913014 61.9339518 -26.80222434 63.94583224 -27.99316406 65.95898438 C-29.89907718 69.176112 -31.81717711 72.38567565 -33.73828125 75.59375 C-34.62676758 77.09917358 -34.62676758 77.09917358 -35.53320312 78.63500977 C-36.08814453 79.55596436 -36.64308594 80.47691895 -37.21484375 81.42578125 C-37.70291504 82.24409424 -38.19098633 83.06240723 -38.69384766 83.90551758 C-40.11328125 85.78125 -40.11328125 85.78125 -43.11328125 86.78125 C-43.75652344 85.65332031 -44.39976562 84.52539062 -45.0625 83.36328125 C-50.13024686 74.52016283 -55.30081725 65.75403504 -60.67578125 57.09375 C-61.21702637 56.22089355 -61.75827148 55.34803711 -62.31591797 54.44873047 C-64.90139722 50.29285799 -67.50931427 46.15357016 -70.16015625 42.0390625 C-70.6286499 41.30647217 -71.09714355 40.57388184 -71.57983398 39.8190918 C-72.45162306 38.45867072 -73.33089808 37.10300607 -74.21899414 35.75317383 C-76.37850458 32.37687189 -77.11328125 30.91045971 -77.11328125 26.78125 C-73.81328125 26.45125 -70.51328125 26.12125 -67.11328125 25.78125 C-59.11328125 38.44791667 -51.11328125 51.11458333 -43.11328125 63.78125 C-39.3248543 62.51844102 -39.04688826 61.41004968 -37.13671875 57.98046875 C-36.26635986 56.44011963 -36.26635986 56.44011963 -35.37841797 54.86865234 C-34.75467285 53.74668457 -34.13092773 52.6247168 -33.48828125 51.46875 C-32.15025239 49.09699904 -30.80419968 46.72985049 -29.45703125 44.36328125 C-29.10752411 43.74791504 -28.75801697 43.13254883 -28.3979187 42.49853516 C-24.39277503 35.47164097 -20.19986047 28.56073791 -15.98828125 21.65625 C-15.62933777 21.06669525 -15.27039429 20.4771405 -14.90057373 19.86972046 C-13.22756262 17.12229987 -11.54853881 14.37927307 -9.85327148 11.64550781 C-8.77049705 9.86311555 -7.72359593 8.05777543 -6.73461914 6.22167969 C-3.83934513 0.96344922 -3.83934513 0.96344922 0 0 Z " fill="#F4F3F4" transform="translate(299.11328125,360.21875)"/>
<path d="M0 0 C3.66102962 1.22034321 3.9760956 2.14250818 5.8984375 5.390625 C6.454104 6.3180249 7.00977051 7.2454248 7.58227539 8.20092773 C8.17387451 9.20712158 8.76547363 10.21331543 9.375 11.25 C10.63070216 13.35074376 11.88723181 15.45099308 13.14453125 17.55078125 C13.78342285 18.62279785 14.42231445 19.69481445 15.08056641 20.79931641 C18.02514583 25.70944566 21.04060529 30.57470113 24.0625 35.4375 C24.58569824 36.28151367 25.10889648 37.12552734 25.64794922 37.99511719 C26.3964917 39.20216309 26.3964917 39.20216309 27.16015625 40.43359375 C27.87002686 41.57997314 27.87002686 41.57997314 28.59423828 42.74951172 C29.54598352 44.27316362 30.50824577 45.7902878 31.47998047 47.30126953 C31.93904785 48.01782715 32.39811523 48.73438477 32.87109375 49.47265625 C33.28157959 50.1056665 33.69206543 50.73867676 34.11499023 51.39086914 C35 53 35 53 35 55 C37.7850491 52.50184102 39.48770327 49.7224912 41.37109375 46.50390625 C42.02247314 45.39668213 42.67385254 44.28945801 43.3449707 43.14868164 C43.85744858 42.27036179 43.85744858 42.27036179 44.38027954 41.3742981 C45.44495101 39.54973092 46.5149771 37.72840979 47.58666992 35.90795898 C49.03354668 33.44992343 50.4787977 30.99094491 51.92285156 28.53125 C54.86299536 23.52787718 57.83240661 18.54216417 60.8125 13.5625 C61.29710693 12.74789307 61.78171387 11.93328613 62.28100586 11.09399414 C62.73096924 10.34239014 63.18093262 9.59078613 63.64453125 8.81640625 C64.02971924 8.17131104 64.41490723 7.52621582 64.81176758 6.86157227 C66.12079241 4.81075774 67.43513129 2.86527801 69 1 C69.66 1 70.32 1 71 1 C72.32421875 2.57421875 72.32421875 2.57421875 73.6875 4.6875 C74.14511719 5.37199219 74.60273438 6.05648438 75.07421875 6.76171875 C76.28468246 9.68828291 75.85425329 10.96189829 75 14 C73.96572616 15.97532911 72.84737871 17.90758263 71.67578125 19.8046875 C71.33768936 20.35698532 70.99959747 20.90928314 70.65126038 21.47831726 C69.54524871 23.28156537 68.42896987 25.07821197 67.3125 26.875 C66.54109564 28.12837355 65.77043274 29.38220372 65.00048828 30.63647461 C63.43185057 33.19020355 61.85960319 35.74165438 60.28466797 38.29150391 C56.95003743 43.69606224 53.66560386 49.13107066 50.375 54.5625 C46.00902106 61.76886251 41.54685763 68.90625667 37 76 C32.81993164 74.60664388 31.84862882 71.72727957 29.8125 68.0625 C28.92334515 66.50622535 28.03121502 64.95164823 27.13671875 63.3984375 C26.64220215 62.53959961 26.14768555 61.68076172 25.63818359 60.79589844 C22.55746992 55.53802467 19.33139082 50.36930407 16.125 45.1875 C14.75374088 42.95713291 13.38264646 40.72666456 12.01171875 38.49609375 C9.45713318 34.34619807 6.87602181 30.21511535 4.26953125 26.09765625 C3.15854473 24.31529701 2.04784969 22.53275603 0.9375 20.75 C0.41881348 19.94715576 -0.09987305 19.14431152 -0.63427734 18.31713867 C-4.02318707 12.82507322 -4.02318707 12.82507322 -3.90625 8.6640625 C-2.86619063 5.60664659 -1.55025445 2.83089942 0 0 Z " fill="#F5F4F5" transform="translate(223,304)"/>
<path d="M0 0 C2.67412318 0.35271846 3.7482938 0.69834464 5.50463867 2.80322266 C5.9710376 3.5822998 6.43743652 4.36137695 6.91796875 5.1640625 C7.44487305 6.03039307 7.97177734 6.89672363 8.51464844 7.78930664 C9.06668945 8.72508545 9.61873047 9.66086426 10.1875 10.625 C11.06003418 12.07024048 11.06003418 12.07024048 11.95019531 13.54467773 C13.64483507 16.35649492 15.32386812 19.17712373 17 22 C17.75012761 23.24940381 18.50124509 24.49821456 19.25390625 25.74609375 C20.64021879 28.04938014 22.02138624 30.35527205 23.3984375 32.6640625 C25.4698957 36.12767479 27.56462756 39.57671485 29.6640625 43.0234375 C38.45953639 57.46353427 47.16440955 71.95247315 55.75537109 86.51538086 C56.14281998 87.17079361 56.53026886 87.82620636 56.92945862 88.5014801 C57.97808909 90.27546315 59.0248799 92.05053329 60.0715332 93.82568359 C61.39634761 96.00636936 62.78041896 98.151805 64.21166992 100.26416016 C66 103 66 103 66.5625 105.375 C65.69862708 109.40640695 63.60577101 112.81780086 61 116 C60.34 116 59.68 116 59 116 C58.52433594 115.10474609 58.52433594 115.10474609 58.0390625 114.19140625 C48.98442118 97.35777749 38.85284406 81.13137417 28.92190552 64.80709839 C22.77979641 54.70825439 16.72935149 44.5578571 10.74633789 34.36401367 C7.85274543 29.4378213 4.9372819 24.52526931 2 19.625 C1.62617188 19.00044922 1.25234375 18.37589844 0.8671875 17.73242188 C-0.70495594 15.11509418 -2.30592707 12.5411094 -4 10 C-3.68609175 6.02382887 -2.16754953 3.29844494 0 0 Z " fill="#F3F2F3" transform="translate(266,202)"/>
<path d="M0 0 C0.66 0 1.32 0 2 0 C2.72960862 1.5526795 3.43292641 3.11773043 4.125 4.6875 C4.71667969 5.99267578 4.71667969 5.99267578 5.3203125 7.32421875 C6.72279532 12.84548732 2.61032511 17.68203625 -0.0625 22.375 C-0.46315674 23.08269531 -0.86381348 23.79039062 -1.27661133 24.51953125 C-4.20228309 29.66165574 -7.21733269 34.7448453 -10.28051758 39.8059082 C-13.83360472 45.68809926 -17.29390068 51.62291947 -20.75 57.5625 C-25.54778029 65.80034631 -30.35225879 74.03407126 -35.1875 82.25 C-35.72793945 83.17240479 -36.26837891 84.09480957 -36.82519531 85.04516602 C-37.33018555 85.90166748 -37.83517578 86.75816895 -38.35546875 87.640625 C-38.79528076 88.38860352 -39.23509277 89.13658203 -39.68823242 89.90722656 C-41.02986889 92.04765236 -42.36855328 94.06922278 -44 96 C-44.66 96 -45.32 96 -46 96 C-47.32421875 94.42578125 -47.32421875 94.42578125 -48.6875 92.3125 C-49.14511719 91.62800781 -49.60273438 90.94351563 -50.07421875 90.23828125 C-51.27057069 87.34583542 -50.80897769 85.99828569 -50 83 C-48.89941406 80.76196289 -48.89941406 80.76196289 -47.515625 78.47265625 C-46.74109985 77.17787354 -46.74109985 77.17787354 -45.95092773 75.85693359 C-45.10896851 74.47368896 -45.10896851 74.47368896 -44.25 73.0625 C-43.05837516 71.07695408 -41.86697516 69.09127322 -40.67578125 67.10546875 C-40.06428223 66.09145996 -39.4527832 65.07745117 -38.82275391 64.03271484 C-36.54214515 60.23821685 -34.29325183 56.42561243 -32.04760742 52.61035156 C-23.29481204 37.74055332 -14.49069329 22.90095937 -5.375 8.25 C-4.86573975 7.42089111 -4.35647949 6.59178223 -3.83178711 5.73754883 C-3.35878174 4.98368896 -2.88577637 4.2298291 -2.3984375 3.453125 C-1.98255371 2.78442383 -1.56666992 2.11572266 -1.13818359 1.42675781 C-0.76258301 0.95592773 -0.38698242 0.48509766 0 0 Z " fill="#F3F2F3" transform="translate(235,220)"/>
<path d="M0 0 C1.4387207 1.76904297 1.4387207 1.76904297 2.92578125 4.2421875 C3.75045898 5.59570312 3.75045898 5.59570312 4.59179688 6.9765625 C5.15962891 7.93304688 5.72746094 8.88953125 6.3125 9.875 C6.86873047 10.7928125 7.42496094 11.710625 7.99804688 12.65625 C9.6765466 15.43095269 11.33950311 18.21449335 13 21 C14.13880533 22.89874803 15.27809895 24.79720331 16.41796875 26.6953125 C17.27869355 28.13017971 18.13938955 29.5650642 19 31 C22.99511203 26.37914753 25.96809947 21.23959844 29.0625 16 C29.59166016 15.11054688 30.12082031 14.22109375 30.66601562 13.3046875 C31.67614069 11.60635928 32.68485216 9.90718919 33.69189453 8.20703125 C35.1189708 5.79927285 36.55630655 3.39782995 38 1 C44.18204489 3.17206983 44.18204489 3.17206983 46 6 C45.78824275 12.13133505 42.53921273 16.80711987 39.5 21.9375 C38.96189697 22.86175781 38.42379395 23.78601563 37.86938477 24.73828125 C36.25746565 27.49897653 34.63178642 30.25100912 33 33 C32.53835449 33.77875488 32.07670898 34.55750977 31.60107422 35.35986328 C29.08954377 39.58686296 26.55115582 43.79682183 24 48 C22.99901223 49.66607361 21.99862717 51.3325104 21 53 C16.82617679 51.49633006 15.66704765 49.14249435 13.625 45.3125 C9.84694109 38.39467578 5.80268392 31.65974345 1.6875 24.9375 C1.07664551 23.93823486 0.46579102 22.93896973 -0.16357422 21.90942383 C-1.27522328 20.0913278 -2.38766404 18.27371538 -3.5012207 16.45678711 C-3.99581787 15.64604736 -4.49041504 14.83530762 -5 14 C-5.54809326 13.1241626 -6.09618652 12.2483252 -6.66088867 11.34594727 C-8.25912339 8.54604983 -8.64937314 7.16569407 -8 4 C-5.22028536 1.22028536 -3.98855034 0 0 0 Z " fill="#F5F4F5" transform="translate(239,285)"/>
<path d="M0 0 C3.70042981 1.2334766 4.12132456 2.32630985 6.13671875 5.5859375 C7.00200195 6.98199219 7.00200195 6.98199219 7.88476562 8.40625 C8.47966797 9.3859375 9.07457031 10.365625 9.6875 11.375 C10.29400391 12.34695313 10.90050781 13.31890625 11.52539062 14.3203125 C16 21.60854014 16 21.60854014 16 25 C-8.09 25 -32.18 25 -57 25 C-54.24714594 16.74143783 -54.24714594 16.74143783 -51 14 C-47.30375818 13.24114534 -43.65351729 13.27889098 -39.890625 13.29296875 C-38.80867859 13.27784744 -37.72673218 13.26272614 -36.61199951 13.24714661 C-33.15778925 13.20417394 -29.70445126 13.19542195 -26.25 13.1875 C-23.90752874 13.16436328 -21.56507833 13.13899968 -19.22265625 13.11132812 C-13.48176265 13.04838132 -7.74121124 13.01352301 -2 13 C-2.33386719 12.3915625 -2.66773438 11.783125 -3.01171875 11.15625 C-4.31785217 8.30650435 -3.95902305 6.95084015 -3 4 C-1.4375 1.6875 -1.4375 1.6875 0 0 Z " fill="#EEEDEE" transform="translate(351,317)"/>
<path d="M0 0 C4.32414741 3.72842164 6.84328639 8.44490445 9.6875 13.3125 C10.74848913 15.10819629 11.80968928 16.90376793 12.87109375 18.69921875 C13.39558105 19.59044434 13.92006836 20.48166992 14.46044922 21.39990234 C15.88458981 23.80508746 17.32836632 26.196518 18.78515625 28.58203125 C19.20385986 29.26934326 19.62256348 29.95665527 20.05395508 30.66479492 C20.83609609 31.94665044 21.62098049 33.2268371 22.40893555 34.50512695 C25 38.77671813 25 38.77671813 25 41 C20.76216928 41.82637699 17.20155476 42.11081497 13 41 C9.42362339 37.06768069 7.32622275 32.78136869 5 28 C4.43410156 27.07574219 3.86820312 26.15148437 3.28515625 25.19921875 C2 23 2 23 2 21 C1.34 21 0.68 21 0 21 C-0.25136719 21.66386719 -0.50273437 22.32773438 -0.76171875 23.01171875 C-6.41196464 36.64717018 -6.41196464 36.64717018 -11 41 C-15.57624406 42.28257961 -19.3803764 41.9639091 -24 41 C-19.61824596 31.28240031 -14.22077414 22.23972369 -8.625 13.1875 C-8.07598022 12.29831879 -8.07598022 12.29831879 -7.51586914 11.39117432 C-1.23364026 1.23364026 -1.23364026 1.23364026 0 0 Z " fill="#F4F2F3" transform="translate(257,227)"/>
<path d="M0 0 C2.91445456 1.45722728 3.65437601 3.05244268 5 6 C4.67420534 11.35325337 3.24105552 14.93157414 0.5 19.5 C-0.03729736 20.40709717 -0.03729736 20.40709717 -0.58544922 21.33251953 C-1.71225123 23.22877333 -2.85471387 25.11486494 -4 27 C-5.02325799 28.70542999 -6.04651111 30.41086303 -7.0690918 32.11669922 C-7.78228645 33.30431261 -8.49734099 34.49081077 -9.21411133 35.67626953 C-11.67297874 39.75137919 -14.083974 43.8520711 -16.47265625 47.96875 C-17.08544434 49.02465332 -17.69823242 50.08055664 -18.32958984 51.16845703 C-19.53944472 53.25652982 -20.74692497 55.34598089 -21.95166016 57.43701172 C-25.43129806 63.44099575 -29.06716326 69.28195068 -33 75 C-35.55743667 72.51440143 -37.45143786 70.25198049 -39 67 C-38.60680991 62.56030852 -36.68506838 59.34368234 -34.453125 55.54296875 C-34.09679993 54.93285446 -33.74047485 54.32274017 -33.37335205 53.69413757 C-32.25762238 51.79077736 -31.13068582 49.89450804 -30 48 C-29.65573975 47.42123108 -29.31147949 46.84246216 -28.95678711 46.24615479 C-26.57795752 42.25397902 -24.16853632 38.2806885 -21.75 34.3125 C-21.38648438 33.71480804 -21.02296875 33.11711609 -20.6484375 32.50131226 C-15.82301516 24.56891794 -10.95466122 16.66504054 -6 8.8125 C-5.50209961 8.02335205 -5.00419922 7.2342041 -4.49121094 6.42114258 C-1.13407775 1.13407775 -1.13407775 1.13407775 0 0 Z " fill="#F4F2F3" transform="translate(201,202)"/>
<path d="M0 0 C0.66 0 1.32 0 2 0 C2.474375 0.969375 2.94875 1.93875 3.4375 2.9375 C4.70193947 5.80477437 4.70193947 5.80477437 6 7 C6.75520839 11.9641137 4.40413787 15.26848379 1.875 19.3125 C0.9598872 20.81967529 0.04589173 22.32752936 -0.8671875 23.8359375 C-1.36702148 24.65545898 -1.86685547 25.47498047 -2.38183594 26.31933594 C-5.40130763 31.3214179 -8.31723025 36.38427442 -11.25 41.4375 C-12.94935995 44.36054133 -14.6509494 47.28212175 -16.36132812 50.19873047 C-17.47877029 52.10897055 -18.58645791 54.02494222 -19.68554688 55.94580078 C-20.21728516 56.86216309 -20.74902344 57.77852539 -21.296875 58.72265625 C-22.00602051 59.95834351 -22.00602051 59.95834351 -22.72949219 61.21899414 C-23.14875977 61.80672607 -23.56802734 62.39445801 -24 63 C-24.66 63 -25.32 63 -26 63 C-26.89986532 61.64114298 -27.7690387 60.26193195 -28.625 58.875 C-29.35589844 57.72644531 -29.35589844 57.72644531 -30.1015625 56.5546875 C-31.38349673 52.90953539 -30.59886316 51.51749895 -29 48 C-27.20348498 44.66753321 -25.27042447 41.42723322 -23.3125 38.1875 C-22.74885742 37.24495361 -22.18521484 36.30240723 -21.60449219 35.33129883 C-20.38877566 33.30006956 -19.17041496 31.27042102 -17.94970703 29.2421875 C-15.90557574 25.84298094 -13.87187333 22.43769565 -11.83984375 19.03125 C-10.47716927 16.74963661 -9.11362685 14.46854461 -7.75 12.1875 C-7.09427002 11.09010498 -6.43854004 9.99270996 -5.76293945 8.86206055 C-5.15538818 7.84926025 -4.54783691 6.83645996 -3.921875 5.79296875 C-3.38143555 4.8908667 -2.84099609 3.98876465 -2.28417969 3.05932617 C-1 1 -1 1 0 0 Z " fill="#F3F2F3" transform="translate(213,218)"/>
<path d="M0 0 C0.33 0.99 0.66 1.98 1 3 C-37.28 3.33 -75.56 3.66 -115 4 C-116.65 6.97 -118.3 9.94 -120 13 C-110.1 13 -100.2 13 -90 13 C-90 13.33 -90 13.66 -90 14 C-102.87 14 -115.74 14 -129 14 C-125.63180276 3.89540828 -125.63180276 3.89540828 -122 1 C-118.08629146 -0.03969938 -114.26319731 0.05675735 -110.2331543 0.11352539 C-109.04248856 0.10274963 -107.85182281 0.09197388 -106.62507629 0.08087158 C-103.36864746 0.05819144 -100.1140593 0.06635497 -96.85768104 0.08831334 C-93.45162475 0.10396275 -90.04584929 0.08007447 -86.6398468 0.06040955 C-80.19414082 0.02918686 -73.74896755 0.03343762 -67.3032282 0.05048412 C-59.96336062 0.06816427 -52.62377803 0.04622148 -45.28395212 0.02097714 C-30.18920391 -0.03005292 -15.09481869 -0.03141159 0 0 Z " fill="#6A696A" transform="translate(430,381)"/>
<path d="M0 0 C0.33 0.66 0.66 1.32 1 2 C1.99 2 2.98 2 4 2 C4.90907545 4.45450371 5.25224309 6.27105344 4.38378906 8.78076172 C3.36626516 10.87775037 2.26948446 12.90696305 1.125 14.9375 C0.72095947 15.67734131 0.31691895 16.41718262 -0.09936523 17.17944336 C-4.06360162 24.33528439 -8.44673291 31.20777415 -13 38 C-15.65099818 35.53644614 -16.91488346 34.26035648 -18.0625 30.75 C-17.98095274 25.8571642 -16.21880689 22.65557715 -13 19 C-12.34 19 -11.68 19 -11 19 C-10.93941406 18.32582031 -10.87882813 17.65164062 -10.81640625 16.95703125 C-9.69037032 12.87851832 -7.45052982 10.04396762 -4.9375 6.6875 C-4.46505859 6.04232422 -3.99261719 5.39714844 -3.50585938 4.73242188 C-2.34490296 3.14929949 -1.17347664 1.57386431 0 0 Z " fill="#2D2B2D" transform="translate(235,147)"/>
<path d="M0 0 C2.475 0.99 2.475 0.99 5 2 C6.74302657 7.47808349 5.65363772 10.3098387 3.0625 15.4375 C2.05874324 17.30096642 1.04328606 19.1583733 0 21 C-0.66 21 -1.32 21 -2 21 C-2.33 22.65 -2.66 24.3 -3 26 C-3.99 26.33 -4.98 26.66 -6 27 C-10.52600517 18.14989323 -10.52600517 18.14989323 -9.328125 13.25390625 C-6.88369338 8.29714214 -3.73388468 4.05393194 0 0 Z " fill="#2D2B2D" transform="translate(246,203)"/>
<path d="M0 0 C0.33 0.66 0.66 1.32 1 2 C1.58991384 1.99907821 2.17982767 1.99815641 2.78761768 1.99720669 C17.13406714 1.97513316 31.48051508 1.9585795 45.82697773 1.94818783 C52.76478497 1.94302907 59.70258089 1.93599435 66.64038086 1.92456055 C73.33173466 1.91353814 80.02307424 1.90772078 86.71443748 1.90512276 C89.27138645 1.90327053 91.82833474 1.89965377 94.3852787 1.89426994 C97.95779455 1.88704477 101.53026126 1.88600969 105.1027832 1.88647461 C106.16733231 1.88287933 107.23188141 1.87928406 108.32868958 1.87557983 C109.30044128 1.8769545 110.27219299 1.87832916 111.27339172 1.87974548 C112.11867589 1.87882369 112.96396006 1.8779019 113.83485889 1.87695217 C116 2 116 2 119 3 C120.38671875 4.7421875 120.38671875 4.7421875 121.6875 6.875 C122.12449219 7.57367188 122.56148438 8.27234375 123.01171875 8.9921875 C124 11 124 11 124 14 C119.05 14 114.1 14 109 14 C109 13.67 109 13.34 109 13 C111.31 13 113.62 13 116 13 C115.01 11.3603125 115.01 11.3603125 114 9.6875 C112.41535071 7.06292462 112 6.1743622 112 3 C75.04 3 38.08 3 0 3 C0 2.01 0 1.02 0 0 Z " fill="#908E8F" transform="translate(89,381)"/>
<path d="M0 0 C4.92959122 -0.04942899 9.85903825 -0.08573318 14.78881836 -0.10986328 C16.46592725 -0.11992237 18.14301861 -0.13357122 19.82006836 -0.15087891 C22.23035002 -0.17513152 24.64039986 -0.1864839 27.05078125 -0.1953125 C28.17592888 -0.21079636 28.17592888 -0.21079636 29.32380676 -0.22659302 C33.10300779 -0.227408 34.77414399 -0.15057067 38 2 C38 2.66 38 3.32 38 4 C30.41 4.33 22.82 4.66 15 5 C14.67 5.99 14.34 6.98 14 8 C12.68 7.67 11.36 7.34 10 7 C10 6.34 10 5.68 10 5 C6.37 4.67 2.74 4.34 -1 4 C-0.67 2.68 -0.34 1.36 0 0 Z " fill="#2A282A" transform="translate(221,0)"/>
<path d="M0 0 C0.99 0.33 1.98 0.66 3 1 C3.33333333 2.33333333 3.66666667 3.66666667 4 5 C4.99 5.33 5.98 5.66 7 6 C5.45454854 11.47932789 2.84456788 16.11429181 0 21 C-2.95749791 17.53258866 -5.07848152 14.13126473 -7 10 C-6.02223933 8.51990357 -5.0427506 7.04094856 -4.0625 5.5625 C-3.51722656 4.73878906 -2.97195312 3.91507812 -2.41015625 3.06640625 C-1 1 -1 1 0 0 Z " fill="#2D2B2D" transform="translate(157,289)"/>
<path d="M0 0 C5.28 0 10.56 0 16 0 C15.11011539 4.44942304 14.48621501 6.23915 12.0625 9.8125 C11.53785156 10.60269531 11.01320313 11.39289063 10.47265625 12.20703125 C9.98667969 12.79871094 9.50070312 13.39039063 9 14 C8.34 14 7.68 14 7 14 C5.2734375 11.4453125 5.2734375 11.4453125 3.375 8.125 C2.74335938 7.03445313 2.11171875 5.94390625 1.4609375 4.8203125 C0 2 0 2 0 0 Z " fill="#E8E7E8" transform="translate(250,285)"/>
<path d="M0 0 C3.16115776 1.36983503 3.9927092 1.9890638 6 5 C5.85569158 10.05079484 2.72745913 13.94403679 0 18 C-2.83689341 15.71218273 -3.93713441 14.19599271 -5.0625 10.6875 C-4.97646679 5.61154038 -3.21491442 3.8422148 0 0 Z " fill="#F2F1F2" transform="translate(222,167)"/>
<path d="M0 0 C3.37183141 3.02302126 5.77514061 5.59050619 7 10 C5.72653217 13.57427105 3.96466738 16.76181859 2 20 C1.70351562 19.38253906 1.40703125 18.76507813 1.1015625 18.12890625 C0.04612833 15.92513067 0.04612833 15.92513067 -1.625 13.9375 C-3 12 -3 12 -3 9 C-3.66 8.67 -4.32 8.34 -5 8 C-4.01 6.02 -3.02 4.04 -2 2 C-1.34 2 -0.68 2 0 2 C0 1.34 0 0.68 0 0 Z " fill="#2E2C2E" transform="translate(146,262)"/>
<path d="M0 0 C2.75445516 0.17770678 3.82070659 0.82688912 5.8125 2.75 C7 5 7 5 6.9375 7.3125 C5.70160248 10.85540622 3.94936915 13.79297334 2 17 C1.731875 16.443125 1.46375 15.88625 1.1875 15.3125 C0.02913503 12.92123388 0.02913503 12.92123388 -1.6875 10.625 C-3.36341143 7.27317713 -3.02564421 5.55030687 -2 2 C-1.34 1.34 -0.68 0.68 0 0 Z " fill="#807E7F" transform="translate(205,195)"/>
<path d="M0 0 C2.8067513 1.77760916 3.60214002 4.19627906 4.875 7.1875 C3.885 7.1875 2.895 7.1875 1.875 7.1875 C0.885 10.4875 -0.105 13.7875 -1.125 17.1875 C-4.20192057 14.41827149 -5.90300007 12.15899976 -7.125 8.1875 C-7.125 5.1875 -7.125 5.1875 -4.875 2.4375 C-2.125 0.1875 -2.125 0.1875 0 0 Z " fill="#828081" transform="translate(362.125,289.8125)"/>
<path d="M0 0 C5.89117043 4.34086242 5.89117043 4.34086242 7 8 C6.82841182 11.43176356 6.24482979 12.72549388 3.9375 15.3125 C2.9784375 16.1478125 2.9784375 16.1478125 2 17 C1.32845067 15.71086513 0.66291141 14.41859796 0 13.125 C-0.37125 12.40570313 -0.7425 11.68640625 -1.125 10.9453125 C-2 9 -2 9 -2 7 C-2.66 6.67 -3.32 6.34 -4 6 C-2.68 4.02 -1.36 2.04 0 0 Z " fill="#817F80" transform="translate(217,211)"/>
<path d="M0 0 C1.9375 0.6875 1.9375 0.6875 4 2 C4.75 4.625 4.75 4.625 5 7 C4.34 7 3.68 7 3 7 C2.9175 7.556875 2.835 8.11375 2.75 8.6875 C1.77389987 11.69714206 0.04811186 13.62154752 -2 16 C-4.09387887 13.15232474 -5.01213303 11.5823856 -4.9375 8 C-3.87823477 4.61035126 -2.37743049 2.6075044 0 0 Z " fill="#7C7A7B" transform="translate(263,195)"/>
<path d="M0 0 C2.5 2.3125 2.5 2.3125 5 5 C5 8.58912412 4.33563446 9.10857029 2 11.6875 C1.443125 12.31011719 0.88625 12.93273437 0.3125 13.57421875 C-0.120625 14.04472656 -0.55375 14.51523438 -1 15 C-3.0625 13.3125 -3.0625 13.3125 -5 11 C-4.82813436 7.47675428 -3.98272184 5.97408276 -2 3 C-1.34 3 -0.68 3 0 3 C0 2.01 0 1.02 0 0 Z " fill="#787677" transform="translate(258,112)"/>
<path d="M0 0 C1.32 1.32 2.64 2.64 4 4 C-5.15361626 20.17214585 -5.15361626 20.17214585 -9 26 C-9.33 26 -9.66 26 -10 26 C-10.287803 22.94928825 -10.4472872 20.03939738 -10 17 C-7.5776532 14.89638304 -6.21754366 14 -3 14 C-2.95101562 13.15695313 -2.90203125 12.31390625 -2.8515625 11.4453125 C-2.73941406 9.80175781 -2.73941406 9.80175781 -2.625 8.125 C-2.55539063 7.03445312 -2.48578125 5.94390625 -2.4140625 4.8203125 C-2 2 -2 2 0 0 Z " fill="#312F31" transform="translate(242,87)"/>
<path d="M0 0 C1.65 0.33 3.3 0.66 5 1 C5.8125 3.1875 5.8125 3.1875 6 6 C4.37660195 7.70884005 2.70680947 9.37446717 1 11 C0.12761142 13.67790896 0.12761142 13.67790896 0 16 C-2.36403266 14.00534745 -3.83509922 12.76266612 -4.5 9.6875 C-3.79087463 5.87595113 -2.05792375 3.27981598 0 0 Z " fill="#858384" transform="translate(371,265)"/>
<path d="M0 0 C1.32 0.33 2.64 0.66 4 1 C4 2.32 4 3.64 4 5 C4.66 5 5.32 5 6 5 C7.14947895 8.55293493 7.0868937 9.79976669 5.5625 13.3125 C4.7890625 14.6428125 4.7890625 14.6428125 4 16 C3.34 16 2.68 16 2 16 C1.27082849 14.27951682 0.56740783 12.54810505 -0.125 10.8125 C-0.51945313 9.84957031 -0.91390625 8.88664063 -1.3203125 7.89453125 C-2.12038901 4.48730885 -1.59504102 3.05065538 0 0 Z " fill="#817F80" transform="translate(238,214)"/>
<path d="M0 0 C1.65 0 3.3 0 5 0 C3.35 3.3 1.7 6.6 0 10 C9.9 10 19.8 10 30 10 C30 10.33 30 10.66 30 11 C18.12 11 6.24 11 -6 11 C-4.02 7.37 -2.04 3.74 0 0 Z " fill="#888687" transform="translate(310,384)"/>
<path d="M0 0 C2.85091869 1.27799804 5.22144171 2.37896673 7 5 C6.875 8.0625 6.875 8.0625 6 11 C5.01 11.66 4.02 12.32 3 13 C2.01 12.34 1.02 11.68 0 11 C0 10.34 0 9.68 0 9 C-0.66 9 -1.32 9 -2 9 C-2.6875 7.3125 -2.6875 7.3125 -3 5 C-1.5625 2.25 -1.5625 2.25 0 0 Z " fill="#504E4F" transform="translate(169,311)"/>
<path d="M0 0 C2 1 2 1 2.9375 3.5 C3.02789138 8.56191726 0.67980643 11.82729103 -2 16 C-4 15 -4 15 -5.125 12.25 C-5.91973395 9.29813104 -6.17810598 7.02780163 -6 4 C-4.68 4.33 -3.36 4.66 -2 5 C-1.34 3.35 -0.68 1.7 0 0 Z " fill="#2C2A2C" transform="translate(263,391)"/>
<path d="M0 0 C0.99 0 1.98 0 3 0 C5 3 5 3 4.875 4.75 C3.59110979 8.05143198 1.81372326 10.95762549 0 14 C-1.99365392 12.3530685 -2.95882973 11.10155333 -3.9375 8.6875 C-4.02827406 4.78421554 -2.45490165 2.93224364 0 0 Z " fill="#817F80" transform="translate(347,311)"/>
<path d="M0 0 C2.16874252 0.50603992 3.99967627 0.99983813 6 2 C6 2.66 6 3.32 6 4 C6.99 4 7.98 4 9 4 C9.25 6.25 9.25 6.25 9 9 C7 11.3125 7 11.3125 5 13 C4.38125 11.88625 4.38125 11.88625 3.75 10.75 C2.06254382 8.09828315 0.29127911 6.13325986 -2 4 C-1.34 2.68 -0.68 1.36 0 0 Z " fill="#868485" transform="translate(280,281)"/>
<path d="M0 0 C0.33 1.32 0.66 2.64 1 4 C-3.75 8 -3.75 8 -6 8 C-6.33 9.32 -6.66 10.64 -7 12 C-9.12758042 9.70221314 -10.01532597 8.62836483 -9.9375 5.4375 C-8.04871294 0.52665365 -5.01571207 -0.41797601 0 0 Z " fill="#4E4C4D" transform="translate(237,281)"/>
<path d="M0 0 C0.99 0 1.98 0 3 0 C4.38671875 1.64453125 4.38671875 1.64453125 5.6875 3.8125 C6.34298828 4.87404297 6.34298828 4.87404297 7.01171875 5.95703125 C8 8 8 8 8 11 C3.05 11 -1.9 11 -7 11 C-7 10.67 -7 10.34 -7 10 C-4.69 10 -2.38 10 0 10 C0 6.7 0 3.4 0 0 Z " fill="#807E7F" transform="translate(205,384)"/>
<path d="M0 0 C0.33 0.99 0.66 1.98 1 3 C1.66 3 2.32 3 3 3 C3.33 3.99 3.66 4.98 4 6 C3.04287109 6.07347656 3.04287109 6.07347656 2.06640625 6.1484375 C1.24011719 6.22320312 0.41382813 6.29796875 -0.4375 6.375 C-1.26121094 6.44460938 -2.08492187 6.51421875 -2.93359375 6.5859375 C-3.61550781 6.72257812 -4.29742187 6.85921875 -5 7 C-5.33 7.66 -5.66 8.32 -6 9 C-8 7 -8 7 -8.3125 4.5 C-8.209375 3.675 -8.10625 2.85 -8 2 C-4.77208445 -0.1519437 -3.71599191 -0.20086443 0 0 Z " fill="#525052" transform="translate(227,380)"/>
<path d="M0 0 C0.99 0.66 1.98 1.32 3 2 C1 6 -1 10 -3 14 C-3.72767003 12.76115681 -4.43154815 11.50831659 -5.125 10.25 C-5.51945313 9.55390625 -5.91390625 8.8578125 -6.3203125 8.140625 C-7 6 -7 6 -6.26953125 3.8203125 C-4.5166539 1.30695606 -2.94295813 0.71779467 0 0 Z " fill="#2E2C2E" transform="translate(221,302)"/>
<path d="M0 0 C0.99 0 1.98 0 3 0 C3 0.99 3 1.98 3 3 C3.99 3.33 4.98 3.66 6 4 C7.35384615 10.4 7.35384615 10.4 5.5625 13.4375 C5.046875 13.953125 4.53125 14.46875 4 15 C3.67 13.35 3.34 11.7 3 10 C2.34 10 1.68 10 1 10 C1 8.68 1 7.36 1 6 C0.01 5.67 -0.98 5.34 -2 5 C-1.34 3.35 -0.68 1.7 0 0 Z " fill="#555354" transform="translate(241,209)"/>
<path d="M0 0 C1.32 0.33 2.64 0.66 4 1 C4 1.66 4 2.32 4 3 C4.66 3 5.32 3 6 3 C6.75 5.1875 6.75 5.1875 7 8 C5.0625 10.8125 5.0625 10.8125 3 13 C2.38125 12.05125 1.7625 11.1025 1.125 10.125 C-0.81970969 7.05554891 -0.81970969 7.05554891 -3 5 C-2.34 5 -1.68 5 -1 5 C-0.67 3.35 -0.34 1.7 0 0 Z " fill="#817F80" transform="translate(225,161)"/>
<path d="M0 0 C0.66 0 1.32 0 2 0 C2.33 1.65 2.66 3.3 3 5 C3.66 5 4.32 5 5 5 C4.5020163 8.73487777 4.12508244 10.81237635 2 14 C1.67 12.68 1.34 11.36 1 10 C0.34 10 -0.32 10 -1 10 C-1 9.34 -1 8.68 -1 8 C-1.99 7.67 -2.98 7.34 -4 7 C-2.92598892 4.08482708 -2.22189824 2.22189824 0 0 Z " fill="#555354" transform="translate(230,154)"/>
<path d="M0 0 C1.5 1.375 1.5 1.375 3 3 C3 3.66 3 4.32 3 5 C3.66 5 4.32 5 5 5 C5.6875 7.75 5.6875 7.75 6 11 C4.51953125 13.203125 4.51953125 13.203125 3 15 C2.18697675 13.54195831 1.37459869 12.08355685 0.5625 10.625 C0.11003906 9.81289063 -0.34242188 9.00078125 -0.80859375 8.1640625 C-1.5650536 6.79003378 -2.29854631 5.40290739 -3 4 C-2.01 2.68 -1.02 1.36 0 0 Z " fill="#7C7A7B" transform="translate(153,295)"/>
<path d="M0 0 C1.52519276 0.08937803 3.04681929 0.24537146 4.5625 0.4375 C5.80193359 0.59025391 5.80193359 0.59025391 7.06640625 0.74609375 C7.70449219 0.82988281 8.34257812 0.91367187 9 1 C8.50769231 6.53846154 8.50769231 6.53846154 5.9375 8.875 C4.9784375 9.431875 4.9784375 9.431875 4 10 C4 9.34 4 8.68 4 8 C3.34 8 2.68 8 2 8 C1.01 5.69 0.02 3.38 -1 1 C-0.67 0.67 -0.34 0.34 0 0 Z " fill="#3C3A3B" transform="translate(333,288)"/>
<path d="M0 0 C2.85091869 1.27799804 5.22144171 2.37896673 7 5 C6.6875 8.1875 6.6875 8.1875 6 11 C5.01 11 4.02 11 3 11 C-1 5.74285714 -1 5.74285714 -1 3 C-1.66 2.67 -2.32 2.34 -3 2 C-2.01 2 -1.02 2 0 2 C0 1.34 0 0.68 0 0 Z " fill="#323032" transform="translate(295,302)"/>
<path d="M0 0 C1.77049689 -0.05410687 3.54146849 -0.09284119 5.3125 -0.125 C6.29863281 -0.14820312 7.28476562 -0.17140625 8.30078125 -0.1953125 C11 0 11 0 14 2 C14 2.66 14 3.32 14 4 C9.05 4 4.1 4 -1 4 C-0.67 2.68 -0.34 1.36 0 0 Z " fill="#2C2A2C" transform="translate(273,0)"/>
<path d="M0 0 C0.99 0 1.98 0 3 0 C3.061875 0.61875 3.12375 1.2375 3.1875 1.875 C3.828919 4.27761141 3.828919 4.27761141 6.5625 5.25 C7.366875 5.4975 8.17125 5.745 9 6 C8.50168276 9.68754757 7.89932357 11.60490662 5 14 C4.71125 13.236875 4.4225 12.47375 4.125 11.6875 C3.03730987 8.84970692 3.03730987 8.84970692 1 6 C1 5.01 1 4.02 1 3 C0.34 2.67 -0.32 2.34 -1 2 C-0.67 1.34 -0.34 0.68 0 0 Z " fill="#7F7D7E" transform="translate(142,268)"/>
<path d="M0 0 C2.2109375 0 2.2109375 0 5.9609375 0.375 C5.9609375 0.705 5.9609375 1.035 5.9609375 1.375 C4.3109375 1.375 2.6609375 1.375 0.9609375 1.375 C0.7134375 2.07625 0.4659375 2.7775 0.2109375 3.5 C-1.21856891 6.78786474 -2.85604299 9.53045943 -5.0390625 12.375 C-6.0290625 12.375 -7.0190625 12.375 -8.0390625 12.375 C-4.75310063 0.87413345 -4.75310063 0.87413345 0 0 Z " fill="#545253" transform="translate(309.0390625,382.625)"/>
<path d="M0 0 C2.475 0.495 2.475 0.495 5 1 C5 1.66 5 2.32 5 3 C6.65 2.01 8.3 1.02 10 0 C10.33 0.66 10.66 1.32 11 2 C9.52830189 5.73584906 9.52830189 5.73584906 7 7 C6.01 8.485 6.01 8.485 5 10 C4.1641146 8.52227402 3.33135744 7.04277811 2.5 5.5625 C2.0359375 4.73878906 1.571875 3.91507812 1.09375 3.06640625 C0 1 0 1 0 0 Z " fill="#2F2D2F" transform="translate(277,97)"/>
<path d="M0 0 C1.75 0.9375 1.75 0.9375 2.75 2.9375 C1.76 2.9375 0.77 2.9375 -0.25 2.9375 C-0.58 3.9275 -0.91 4.9175 -1.25 5.9375 C-1.91 5.9375 -2.57 5.9375 -3.25 5.9375 C-3.58 8.2475 -3.91 10.5575 -4.25 12.9375 C-6.25413395 9.93129907 -7.16498029 8.50832798 -7.25 4.9375 C-3.42090479 -0.09502513 -3.42090479 -0.09502513 0 0 Z " fill="#525051" transform="translate(362.25,290.0625)"/>
<path d="M0 0 C2.31 0 4.62 0 7 0 C6.125 5.75 6.125 5.75 5 8 C4.01 8 3.02 8 2 8 C0.23537317 4.91190305 0 3.76687864 0 0 Z " fill="#2F2D2F" transform="translate(175,289)"/>
<path d="M0 0 C3.09246438 1.06636703 4.00415447 2.00644659 5.8125 4.8125 C7.07069492 8.18976004 7.0899321 9.63111895 6 13 C4 10 4 10 4 8 C3.34 8 2.68 8 2 8 C0.93224776 6.03533587 -0.06553465 4.03144641 -1 2 C-0.67 1.34 -0.34 0.68 0 0 Z " fill="#545253" transform="translate(154,292)"/>
<path d="M0 0 C2.75445516 0.17770678 3.82070659 0.82688912 5.8125 2.75 C7.31690887 5.6004589 6.92250763 6.98088413 6 10 C5.67 9.34 5.34 8.68 5 8 C4.01 8 3.02 8 2 8 C1.67 6.35 1.34 4.7 1 3 C0.01 2.67 -0.98 2.34 -2 2 C-1.34 1.34 -0.68 0.68 0 0 Z " fill="#535152" transform="translate(205,195)"/>
<path d="M0 0 C1.65 0.33 3.3 0.66 5 1 C5.33 2.32 5.66 3.64 6 5 C5.01 4.34 4.02 3.68 3 3 C2.54625 3.825 2.0925 4.65 1.625 5.5 C1.08875 6.325 0.5525 7.15 0 8 C-0.66 8 -1.32 8 -2 8 C-2.33 9.32 -2.66 10.64 -3 12 C-3.33 12 -3.66 12 -4 12 C-4.61528766 6.92387682 -2.61658349 4.17017994 0 0 Z " fill="#525051" transform="translate(371,265)"/>
<path d="M0 0 C0 3.65100394 -1.0447585 5.10121798 -2.9375 8.1875 C-3.48277344 9.08855469 -4.02804688 9.98960938 -4.58984375 10.91796875 C-5.05519531 11.60503906 -5.52054688 12.29210937 -6 13 C-6.33 13 -6.66 13 -7 13 C-7 10.03 -7 7.06 -7 4 C-4.69 2.68 -2.38 1.36 0 0 Z " fill="#393739" transform="translate(239,100)"/>
<path d="M0 0 C2.36720333 0.31562711 3.84191959 0.89097903 5.8125 2.25 C7 4 7 4 6.6875 6.6875 C6.460625 7.450625 6.23375 8.21375 6 9 C4.68 8.34 3.36 7.68 2 7 C2 6.34 2 5.68 2 5 C1.34 5 0.68 5 0 5 C-0.5625 3.0625 -0.5625 3.0625 -1 1 C-0.67 0.67 -0.34 0.34 0 0 Z " fill="#817F80" transform="translate(167,315)"/>
<path d="M0 0 C3.875 1.75 3.875 1.75 5 4 C4.01 4 3.02 4 2 4 C1.731875 4.639375 1.46375 5.27875 1.1875 5.9375 C0 8 0 8 -3 9 C-3.33 9.66 -3.66 10.32 -4 11 C-4.56638908 6.18569279 -2.82561627 3.79692186 0 0 Z " fill="#2C2A2C" transform="translate(358,286)"/>
<path d="M0 0 C5.89117043 4.34086242 5.89117043 4.34086242 7 8 C6.625 10.75 6.625 10.75 6 13 C3.39954125 10.6975881 2.15260817 8.50103323 0.8125 5.3125 C0.46832031 4.50425781 0.12414062 3.69601563 -0.23046875 2.86328125 C-0.48441406 2.24839844 -0.73835937 1.63351563 -1 1 C-0.67 0.67 -0.34 0.34 0 0 Z " fill="#555354" transform="translate(217,211)"/>
<path d="M0 0 C-1.1858237 3.37503669 -2.27573689 5.64722731 -5 8 C-5 7.34 -5 6.68 -5 6 C-5.66 6 -6.32 6 -7 6 C-7.33 4.35 -7.66 2.7 -8 1 C-3.375 -1.125 -3.375 -1.125 0 0 Z " fill="#363436" transform="translate(223,128)"/>
<path d="M0 0 C0.99 0.99 1.98 1.98 3 3 C1.02 5.97 -0.96 8.94 -3 12 C-3.66 11.67 -4.32 11.34 -5 11 C-4.45276317 7.62537285 -3.9451 5.91765 -2 3 C-1.34 3 -0.68 3 0 3 C0 2.01 0 1.02 0 0 Z " fill="#545253" transform="translate(258,112)"/>
<path d="M0 0 C1.65 0.33 3.3 0.66 5 1 C3.37660195 2.70884005 1.70680947 4.37446717 0 6 C-0.66 6 -1.32 6 -2 6 C-2.33 7.32 -2.66 8.64 -3 10 C-3.33 7.69 -3.66 5.38 -4 3 C-3.01 2.67 -2.02 2.34 -1 2 C-0.67 1.34 -0.34 0.68 0 0 Z " fill="#858384" transform="translate(233,283)"/>
<path d="M0 0 C1.98 1.65 3.96 3.3 6 5 C5.67 6.65 5.34 8.3 5 10 C4.236875 9.21625 3.47375 8.4325 2.6875 7.625 C0.09108195 4.92742283 0.09108195 4.92742283 -3 3 C-2.34 3 -1.68 3 -1 3 C-0.67 2.01 -0.34 1.02 0 0 Z " fill="#2C2A2C" transform="translate(208,191)"/>
<path d="M0 0 C0.99 0 1.98 0 3 0 C4.38671875 1.64453125 4.38671875 1.64453125 5.6875 3.8125 C6.12449219 4.52019531 6.56148437 5.22789062 7.01171875 5.95703125 C8 8 8 8 8 11 C5.69 11 3.38 11 1 11 C1 10.67 1 10.34 1 10 C2.65 9.67 4.3 9.34 6 9 C5.505 8.54625 5.01 8.0925 4.5 7.625 C3 6 3 6 3 4 C2.01 3.67 1.02 3.34 0 3 C0 2.01 0 1.02 0 0 Z " fill="#504E4F" transform="translate(205,384)"/>
<path d="M0 0 C2.16874252 0.50603992 3.99967627 0.99983813 6 2 C6 2.66 6 3.32 6 4 C6.99 4 7.98 4 9 4 C9 5.65 9 7.3 9 9 C8.67 8.34 8.34 7.68 8 7 C6.5459375 6.5978125 6.5459375 6.5978125 5.0625 6.1875 C2 5 2 5 0.625 2.375 C0.41875 1.59125 0.2125 0.8075 0 0 Z " fill="#565455" transform="translate(280,281)"/>
<path d="M0 0 C0.99 0.66 1.98 1.32 3 2 C2.67 2.66 2.34 3.32 2 4 C1.34 4 0.68 4 0 4 C-0.4021875 5.175625 -0.4021875 5.175625 -0.8125 6.375 C-2 9 -2 9 -5 11 C-4.54663921 6.12637153 -3.2910841 3.60957611 0 0 Z " fill="#555354" transform="translate(263,195)"/>
<path d="M0 0 C-0.28875 0.70125 -0.5775 1.4025 -0.875 2.125 C-2.02133588 5.05452503 -3.02625654 8.00921653 -4 11 C-5.625 9.3125 -5.625 9.3125 -7 7 C-6.06446197 3.07074028 -4.53259136 0 0 0 Z " fill="#636162" transform="translate(223,305)"/>
<path d="M0 0 C1.98 0.495 1.98 0.495 4 1 C4 2.65 4 4.3 4 6 C4.66 6 5.32 6 6 6 C5.67 6.99 5.34 7.98 5 9 C3.68 8.34 2.36 7.68 1 7 C1 5.68 1 4.36 1 3 C0.34 3 -0.32 3 -1 3 C-0.67 2.01 -0.34 1.02 0 0 Z " fill="#535152" transform="translate(144,265)"/>
<path d="M0 0 C0.99 0 1.98 0 3 0 C1.55049545 3.7910119 -0.15172566 7.3874638 -2 11 C-2.66 10.34 -3.32 9.68 -4 9 C-3.70143062 5.21812121 -2.6338284 2.73512949 0 0 Z " fill="#514F50" transform="translate(347,311)"/>
<path d="M0 0 C0.66 0 1.32 0 2 0 C2 0.66 2 1.32 2 2 C2.66 2.33 3.32 2.66 4 3 C2.68 3 1.36 3 0 3 C-0.103125 3.53625 -0.20625 4.0725 -0.3125 4.625 C-1.18092697 7.62502044 -2.55620296 10.2379535 -4 13 C-4.33 13 -4.66 13 -5 13 C-4.56744475 7.59305933 -3.41778487 4.24633878 0 0 Z " fill="#2F2D2E" transform="translate(371,262)"/>
<path d="M0 0 C3.35498935 1.38827146 5.15050455 2.85585774 7 6 C7 7.32 7 8.64 7 10 C6.34 10 5.68 10 5 10 C3.60699818 8.04109119 2.27754554 6.0360882 1 4 C0.34 3.01 -0.32 2.02 -1 1 C-0.67 0.67 -0.34 0.34 0 0 Z " fill="#2F2D2F" transform="translate(218,209)"/>
<path d="M0 0 C3.35915158 1.43963639 5.71624938 3.12416589 8 6 C7.75 8.25 7.75 8.25 7 10 C7 9.01 7 8.02 7 7 C6.01 7 5.02 7 4 7 C4 6.34 4 5.68 4 5 C1.525 4.01 1.525 4.01 -1 3 C-0.67 2.01 -0.34 1.02 0 0 Z " fill="#2F2D2F" transform="translate(282,278)"/>
<path d="M0 0 C0.33 0.99 0.66 1.98 1 3 C1.66 3 2.32 3 3 3 C4.61949011 5.57213134 5.04408751 6.67669159 4.625 9.75 C4.41875 10.4925 4.2125 11.235 4 12 C2 11 2 11 0.875 8.25 C0.08026605 5.29813104 -0.17810598 3.02780163 0 0 Z " fill="#898788" transform="translate(257,395)"/>
<path d="M0 0 C0.99 0.33 1.98 0.66 3 1 C2.401875 1.7425 1.80375 2.485 1.1875 3.25 C-0.58173222 5.47417764 -2.30860915 7.71662235 -4 10 C-4.25 7.25 -4.25 7.25 -4 4 C-2 1.625 -2 1.625 0 0 Z " fill="#2C2A2C" transform="translate(346,309)"/>
<path d="M0 0 C0.99 0.33 1.98 0.66 3 1 C3 1.66 3 2.32 3 3 C3.99 3.33 4.98 3.66 6 4 C6 5.65 6 7.3 6 9 C3.35247996 6.42215154 1.05567935 4.08351902 -1 1 C-0.67 0.67 -0.34 0.34 0 0 Z " fill="#2C2A2C" transform="translate(171,309)"/>
<path d="M0 0 C1.1446875 0.12375 1.1446875 0.12375 2.3125 0.25 C2.6425 0.91 2.9725 1.57 3.3125 2.25 C2.219375 2.683125 1.12625 3.11625 0 3.5625 C-2.78158793 4.74495641 -4.75111939 5.85800043 -6.6875 8.25 C-5.9168107 3.93413993 -4.72992724 0.43999323 0 0 Z " fill="#2C2A2C" transform="translate(232.6875,278.75)"/>
<path d="M0 0 C2.475 0.495 2.475 0.495 5 1 C5.33 2.65 5.66 4.3 6 6 C5.01 6 4.02 6 3 6 C2.01 4.02 1.02 2.04 0 0 Z " fill="#393739" transform="translate(286,113)"/>
<path d="M0 0 C1.65 0 3.3 0 5 0 C4.625 2.4375 4.625 2.4375 4 5 C3.01 5.495 3.01 5.495 2 6 C2 5.34 2 4.68 2 4 C1.34 4 0.68 4 0 4 C0 2.68 0 1.36 0 0 Z " fill="#9C9B9C" transform="translate(335,292)"/>
<path d="M0 0 C2.97 0.495 2.97 0.495 6 1 C5.67 2.98 5.34 4.96 5 7 C3.5 5.6875 3.5 5.6875 2 4 C2 3.01 2 2.02 2 1 C1.34 0.67 0.68 0.34 0 0 Z " fill="#525051" transform="translate(258,397)"/>
<path d="M0 0 C-3.26545761 1.88391785 -6.28111761 2.49287967 -10 3 C-9.67 2.01 -9.34 1.02 -9 0 C-5.52176885 -1.15941038 -3.54104422 -0.70820884 0 0 Z " fill="#4F4D4E" transform="translate(230,383)"/>
<path d="M0 0 C1.32 0.33 2.64 0.66 4 1 C4 2.65 4 4.3 4 6 C3.01 6.495 3.01 6.495 2 7 C0 4 0 4 0 0 Z " fill="#2C2A2C" transform="translate(264,0)"/>
<path d="M0 0 C1.65 0 3.3 0 5 0 C4.67 1.65 4.34 3.3 4 5 C3.01 5 2.02 5 1 5 C0.67 3.35 0.34 1.7 0 0 Z " fill="#676566" transform="translate(176,292)"/>
<path d="M0 0 C0.99 0.33 1.98 0.66 3 1 C2.67 2.32 2.34 3.64 2 5 C1.01 5 0.02 5 -1 5 C-1.99 5.495 -1.99 5.495 -3 6 C-1.125 1.125 -1.125 1.125 0 0 Z " fill="#737172" transform="translate(349,313)"/>
<path d="M0 0 C0.66 0 1.32 0 2 0 C2 0.66 2 1.32 2 2 C3.32 2.66 4.64 3.32 6 4 C5.67 5.32 5.34 6.64 5 8 C4.16382818 6.8562364 3.33113541 5.70992861 2.5 4.5625 C2.0359375 3.92441406 1.571875 3.28632813 1.09375 2.62890625 C0 1 0 1 0 0 Z " fill="#615F60" transform="translate(294,306)"/>
<path d="M0 0 C0.66 0.33 1.32 0.66 2 1 C0.25 5.875 0.25 5.875 -2 7 C-3 4 -3 4 -2 1 C-1.34 0.67 -0.68 0.34 0 0 Z " fill="#3A383A" transform="translate(210,145)"/>
<path d="M0 0 C0.99 0.33 1.98 0.66 3 1 C1.35 2.65 -0.3 4.3 -2 6 C-2.33 4.68 -2.66 3.36 -3 2 C-2.01 1.34 -1.02 0.68 0 0 Z " fill="#888687" transform="translate(260,119)"/>
<path d="M0 0 C0.99 0.33 1.98 0.66 3 1 C2.34 2.98 1.68 4.96 1 7 C0.01 5.68 -0.98 4.36 -2 3 C-1.34 2.01 -0.68 1.02 0 0 Z " fill="#868485" transform="translate(156,303)"/>
<path d="M0 0 C0 0.99 0 1.98 0 3 C-0.99 3 -1.98 3 -3 3 C-3.33 4.32 -3.66 5.64 -4 7 C-4.33 5.35 -4.66 3.7 -5 2 C-3.35 1.34 -1.7 0.68 0 0 Z " fill="#575556" transform="translate(232,283)"/>
<path d="M0 0 C1.98 0 3.96 0 6 0 C6 0.99 6 1.98 6 3 C4.68 3.33 3.36 3.66 2 4 C1.34 2.68 0.68 1.36 0 0 Z " fill="#323031" transform="translate(294,126)"/>
<path d="M0 0 C0.66 0.33 1.32 0.66 2 1 C1.625 3.4375 1.625 3.4375 1 6 C0.01 6.495 0.01 6.495 -1 7 C-1.625 5.1875 -1.625 5.1875 -2 3 C-1.34 2.01 -0.68 1.02 0 0 Z " fill="#393738" transform="translate(249,79)"/>
</svg>
